<svg xmlns="http://www.w3.org/2000/svg" viewBox="0 0 25 25"><defs><style>.cls-1{fill:#fff;opacity:0;}.cls-2{fill:#101010;}</style></defs><g id="Layer_2" data-name="Layer 2"><g id="Layer_1-2" data-name="Layer 1"><rect class="cls-1" width="25" height="25"/><g id="Group_409" data-name="Group 409"><g id="Group_408" data-name="Group 408"><path id="Path_8" data-name="Path 8" class="cls-2" d="M17.79,5.87l-1.38.55a4.34,4.34,0,0,0-.93-.54l-.21-1.47A.28.28,0,0,0,15,4.18H12.77a.27.27,0,0,0-.27.24l-.2,1.47a3.64,3.64,0,0,0-.93.54L10,5.87A.27.27,0,0,0,9.65,6L8.55,7.91a.27.27,0,0,0,.06.36l1.18.92a3.33,3.33,0,0,0-.07.54,3.29,3.29,0,0,0,0,.54l-1.17.92a.25.25,0,0,0-.07.34l1.11,1.93a.27.27,0,0,0,.34.12L11.36,13a4,4,0,0,0,.94.54L12.49,15a.29.29,0,0,0,.28.23H15a.28.28,0,0,0,.28-.23l.21-1.47a4.34,4.34,0,0,0,.93-.54l1.37.55a.25.25,0,0,0,.33-.12l1.11-1.93a.26.26,0,0,0-.07-.35L18,10.27a3.67,3.67,0,0,0,0-1.08l1.18-.92a.28.28,0,0,0,.07-.36L18.14,6A.29.29,0,0,0,17.79,5.87Zm-3.91,5.84a2,2,0,1,1,2-2,2,2,0,0,1-2,2Z"/><path id="Path_9" data-name="Path 9" class="cls-2" d="M23.51,8.42A9.8,9.8,0,0,0,14.45,0a5.33,5.33,0,0,0-.57,0A9.69,9.69,0,0,0,4.29,8.34L1.61,13.17a1.38,1.38,0,0,0,.46,1.9,1.42,1.42,0,0,0,.72.2H4.18v2.78A2.78,2.78,0,0,0,7,20.82H8.34V25H18V18.49A9.73,9.73,0,0,0,23.51,8.42Zm-7,7.73-1.23.58v5.48H11.11V18.05H7V12.5H5.15L7,9.27a6.92,6.92,0,1,1,9.51,6.88Z"/></g></g></g></g></svg>