<svg xmlns="http://www.w3.org/2000/svg" viewBox="0 0 25 25"><defs><style>.cls-1{fill:#fff;opacity:0;}.cls-2{fill:#101010;}</style></defs><g id="Layer_2" data-name="Layer 2"><g id="Layer_1-2" data-name="Layer 1"><rect class="cls-1" width="25" height="25"/><path class="cls-2" d="M6.3,25a3.05,3.05,0,0,1-.46-.2,1.37,1.37,0,0,1-.67-1.22c0-.62,0-.62.6-.62H18.31a2.17,2.17,0,0,0,2.08-1.22,2.35,2.35,0,0,0,.22-1.14V3.13c0-.23,0-.33.28-.29a2.54,2.54,0,0,0,.39,0,1.37,1.37,0,0,1,1.43,1.3,2.45,2.45,0,0,1,0,.27q0,9.51,0,19a1.43,1.43,0,0,1-.8,1.42,2.13,2.13,0,0,1-.35.14Z"/><path class="cls-2" d="M7.82,2.55V4.31A1.18,1.18,0,0,1,6.59,5.56c-1.21,0-2.42,0-3.63,0A.59.59,0,0,1,2.53,4.5L6.74.29a.61.61,0,0,1,.72-.2.61.61,0,0,1,.36.65C7.81,1.35,7.82,2,7.82,2.55Z"/><path class="cls-2" d="M19.83,1.5A1.39,1.39,0,0,0,18.34,0H8.82c-.2,0-.23.06-.23.24,0,1.35,0,2.7,0,4.05a2,2,0,0,1-2.09,2h-4c-.2,0-.24.06-.24.25,0,1.88,0,3.77,0,5.66v8.34a1.41,1.41,0,0,0,1.59,1.58H18.26a2.32,2.32,0,0,0,.46,0,1.38,1.38,0,0,0,1.11-1.48V1.5Zm-8.59,16H6.61a.68.68,0,0,1-.75-.66.67.67,0,0,1,.73-.65h4.66a.66.66,0,1,1,0,1.31Zm4.89-3.33H6.62a.68.68,0,0,1-.76-.65.67.67,0,0,1,.57-.65h9.68a.65.65,0,0,1,.69.7A.66.66,0,0,1,16.13,14.15Zm0-3.54H6.57a.65.65,0,0,1-.18-1.28,1.1,1.1,0,0,1,.26,0H16c.47,0,.77.23.78.62A.64.64,0,0,1,16.14,10.61Z"/></g></g></svg>