<svg xmlns="http://www.w3.org/2000/svg" viewBox="0 0 25 25"><defs><style>.cls-1{fill:#fff;opacity:0;}.cls-2{fill:#101010;}</style></defs><g id="Layer_2" data-name="Layer 2"><g id="Layer_1-2" data-name="Layer 1"><rect class="cls-1" width="25" height="25"/><g id="Group_406" data-name="Group 406"><path id="Path_5" data-name="Path 5" class="cls-2" d="M21.63,13.23C19.72,8.26,12.9,8,14.54.76A.61.61,0,0,0,14.09,0a.57.57,0,0,0-.46.07C9.2,2.7,6,7.93,8.69,14.78a.6.6,0,0,1-.91.72A6,6,0,0,1,5.54,9.71.62.62,0,0,0,5,9a.62.62,0,0,0-.57.26,11.38,11.38,0,0,0-1.67,6.4,9.81,9.81,0,0,0,8.3,9.2,10.44,10.44,0,0,0,8.47-2.28A8.42,8.42,0,0,0,21.63,13.23ZM10.32,19.36a3.76,3.76,0,0,0,2.9-2.81c.4-1.75-1.17-3.45-.11-6.21.4,2.28,4,3.71,4,6.2C17.19,19.62,13.85,22.27,10.32,19.36Z"/></g></g></g></svg>