<svg xmlns="http://www.w3.org/2000/svg" viewBox="0 0 25 25"><defs><style>.cls-1{fill:#fff;opacity:0;}.cls-2{fill:#101010;}</style></defs><g id="Layer_2" data-name="Layer 2"><g id="Layer_1-2" data-name="Layer 1"><rect class="cls-1" width="25" height="25"/><path class="cls-2" d="M25,20.68a4.36,4.36,0,0,1-.21.64,2.26,2.26,0,0,1-2,1.35H2.68c0-.1.08-.13.13-.18L10,15.31c.13-.13.2-.16.34,0,.78.8,1.58,1.59,2.37,2.38a.75.75,0,0,0,1.19,0l5.5-5.51c.14-.13.2-.15.35,0l5.08,5.09.18.15Z"/><path class="cls-2" d="M24.89,3.8a2.4,2.4,0,0,0-2.32-1.48H2.45a2.78,2.78,0,0,0-.58.06A2.27,2.27,0,0,0,0,4.38C0,4.6,0,4.82,0,5,0,10.19,0,15.34,0,20.5a2.16,2.16,0,0,0,.7,1.6c.23.22.31.2.53,0a1.7,1.7,0,0,0,.19-.19l8.09-8.08a.76.76,0,0,1,1.28,0c.7.74,1.43,1.45,2.15,2.17.34.34.36.34.7,0l5.26-5.26c.54-.54.79-.54,1.32,0q2.22,2.23,4.45,4.45c.09.09.16.23.33.22v-11C24.94,4.2,25,4,24.89,3.8ZM6.25,11.7A3.08,3.08,0,1,1,9.33,8.61,3.1,3.1,0,0,1,6.25,11.7Z"/><path class="cls-2" d="M6.23,7A1.62,1.62,0,1,1,4.62,8.62,1.64,1.64,0,0,1,6.23,7Z"/></g></g></svg>