<svg xmlns="http://www.w3.org/2000/svg" viewBox="0 0 25 25"><defs><style>.cls-1{fill:#fff;opacity:0;}.cls-2{fill:#101010;}</style></defs><g id="Layer_2" data-name="Layer 2"><g id="Layer_1-2" data-name="Layer 1"><rect class="cls-1" width="25" height="25"/><path class="cls-2" d="M0,12.84c.09-.05.07-.14.09-.21A3.07,3.07,0,0,1,1.61,11c.12-.07.13,0,.17.09.26.37.51.75.76,1.12a2.2,2.2,0,0,0,3.69,0c.27-.38.52-.76.77-1.15.07-.11.12-.13.24-.06a3,3,0,0,1,1.4,1.49c0,.15.17.14.27.17l4.34,1.07,2.27.56c.09,0,.18.06.28,0a6.12,6.12,0,0,1,2.86-1,8.66,8.66,0,0,1,4.22.46,3.8,3.8,0,0,1,1.69,1.18,1.86,1.86,0,0,1,0,2.39,4,4,0,0,1-2.06,1.3,8.83,8.83,0,0,1-5.31,0,.44.44,0,0,0-.4,0l-2.73,1.55c-.14.08-.16.11,0,.24a2,2,0,0,1-.1,3.06,5.17,5.17,0,0,1-2.48,1.16c-.38.08-.76.13-1.14.2H8.74a7.21,7.21,0,0,1-1.67-.29,5.1,5.1,0,0,1-2-1.11,2,2,0,0,1,.21-3.28,5.91,5.91,0,0,1,2.91-1.14,9,9,0,0,1,4,.29.47.47,0,0,0,.38,0l2.6-1.48c.16-.08.16-.16.05-.29a1.93,1.93,0,0,1-.57-1.73q0-.13-.12-.18l-.18,0L8.94,14.26a.4.4,0,0,0-.51.18,3.85,3.85,0,0,1-2.21,1.48,6.12,6.12,0,0,1-4.58-.36,3.32,3.32,0,0,1-1.09-.84A2,2,0,0,1,0,13.56Z"/><path class="cls-2" d="M8.73,3.76a4.41,4.41,0,0,0-8.59-.4A1.39,1.39,0,0,1,0,3.89V5.05c.07,0,.05.07.05.12A4.4,4.4,0,0,0,.71,6.84c1,1.49,2,3,3,4.46a.8.8,0,0,0,1.45,0C6.06,9.82,7,8.38,8,6.93A4.26,4.26,0,0,0,8.73,3.76ZM4.38,6.64A2.18,2.18,0,1,1,6.59,4.47,2.18,2.18,0,0,1,4.38,6.64Z"/></g></g></svg>