<svg xmlns="http://www.w3.org/2000/svg" viewBox="0 0 25 25"><defs><style>.cls-1{fill:#fff;opacity:0;}.cls-2{fill:#101010;}</style></defs><g id="Layer_2" data-name="Layer 2"><g id="Layer_1-2" data-name="Layer 1"><rect class="cls-1" width="25" height="25"/><path class="cls-2" d="M17,21.59h-6.6A1.17,1.17,0,0,1,9.1,20.25a6.75,6.75,0,0,1,5.79-6.52,14.4,14.4,0,0,1,4.9.11,6.76,6.76,0,0,1,5.13,5.58c0,.28.06.56.08.85a1.15,1.15,0,0,1-1.26,1.32c-1.73,0-3.45,0-5.17,0Z"/><path class="cls-2" d="M6.82,12.5a4.55,4.55,0,1,1,4.55-4.56A4.55,4.55,0,0,1,6.82,12.5Z"/><path class="cls-2" d="M17,12.5A4.55,4.55,0,1,1,21.6,7.93,4.56,4.56,0,0,1,17,12.5Z"/><path class="cls-2" d="M9.48,14C7.25,16.61,6.54,18.78,7,21.59H1.46C.38,21.59,0,21.2,0,20.11a6.25,6.25,0,0,1,2.74-5.35,6,6,0,0,1,3.2-1.11A8.6,8.6,0,0,1,9.36,14Z"/></g></g></svg>