<svg xmlns="http://www.w3.org/2000/svg" viewBox="0 0 25 25"><defs><style>.cls-1{fill:#fff;opacity:0;}.cls-2{fill:#101010;}</style></defs><g id="Layer_2" data-name="Layer 2"><g id="Layer_1-2" data-name="Layer 1"><rect class="cls-1" width="25" height="25"/><path class="cls-2" d="M12.75,0c0,.07.09.05.14.07a1,1,0,0,1,.65,1c0,.33,0,.65,0,1,0,.13,0,.18.17.2a7.29,7.29,0,0,1,6,5.82,8.44,8.44,0,0,1,.13,1.5c0,1.1-.06,2.2,0,3.3a6.78,6.78,0,0,0,2.32,4.68,2,2,0,0,1,.76,1.32,1.83,1.83,0,0,1-1.8,2H4.05A1.86,1.86,0,0,1,2.4,20a1.8,1.8,0,0,1,.38-2.43,7.29,7.29,0,0,0,1.48-1.8,7.11,7.11,0,0,0,1-3.6c0-1,0-2.06,0-3.08a7.27,7.27,0,0,1,6-6.9c.18,0,.23-.09.22-.26s0-.57,0-.86a1,1,0,0,1,.72-1s.06,0,.07,0Z"/><path class="cls-2" d="M16.33,21.89A3.86,3.86,0,0,1,15,24.12a3.91,3.91,0,0,1-6.25-2c0-.13-.06-.21.13-.21h7.48Z"/></g></g></svg>