<svg xmlns="http://www.w3.org/2000/svg" viewBox="0 0 25 25"><defs><style>.cls-1{fill:#fff;opacity:0;}.cls-2{fill:#101010;}</style></defs><g id="Layer_2" data-name="Layer 2"><g id="Layer_1-2" data-name="Layer 1"><rect class="cls-1" width="25" height="25"/><path class="cls-2" d="M0,7.56A3.1,3.1,0,0,1,.57,6.23a2.62,2.62,0,0,1,2-1.07c.51,0,1,0,1.54,0H14a2.7,2.7,0,0,1,2.62,1.6A2.78,2.78,0,0,1,16.88,8v9a2.74,2.74,0,0,1-2.29,2.8,2.19,2.19,0,0,1-.51,0H2.78A2.72,2.72,0,0,1,.07,17.72c0-.09,0-.2-.07-.28Z"/><path class="cls-2" d="M25,12.51c0,1.39,0,2.78,0,4.17a1.63,1.63,0,0,1-2.1,1.6,2.48,2.48,0,0,1-.44-.2l-4-2.31a.3.3,0,0,1-.18-.3c0-2,0-4,0-6a.27.27,0,0,1,.14-.28c1.38-.79,2.76-1.6,4.15-2.39a1.62,1.62,0,0,1,2.38.94,1.79,1.79,0,0,1,.09.6C25,9.75,25,11.13,25,12.51Z"/></g></g></svg>