<svg xmlns="http://www.w3.org/2000/svg" viewBox="0 0 58.53 56.07"><defs><style>.cls-1{fill:#101010;}.cls-2{fill:#ebeef0;}</style></defs><g id="Layer_2" data-name="Layer 2"><g id="Layer_1-2" data-name="Layer 1"><path class="cls-1" d="M58.53,26.55V24.83c-.1-.36-.19-.73-.3-1.08a6.13,6.13,0,0,0-6-4.26H37.73c-.66,0-.67,0-.46-.65A36.18,36.18,0,0,0,38.91,11a10.69,10.69,0,0,0-4.22-9.76A4.81,4.81,0,0,0,30.31.15a9.37,9.37,0,0,0-2.63,1.06,1.62,1.62,0,0,0-.86,1.54c0,2.49,0,5,0,7.48a2,2,0,0,1-.18.83L20,25.54c-.08.18-.1.44-.39.43-.29-1.43-.5-1.59-2-1.59H1.6C.45,24.38,0,24.81,0,26V54.52c0,1.13.42,1.55,1.56,1.55H18c1.11,0,1.55-.44,1.56-1.56V52.24a.64.64,0,0,1,.41.11,12.7,12.7,0,0,0,5.4,1.27c7.6,0,15.2.06,22.8,0a5.45,5.45,0,0,0,5.1-7.52c-.13-.33,0-.45.23-.62a5.37,5.37,0,0,0,2.22-6.65c-.15-.38-.06-.53.26-.7a4.42,4.42,0,0,0,1.25-1.07,6.19,6.19,0,0,0,1.34-3V32.72A4.57,4.57,0,0,0,57.35,30a.39.39,0,0,1,0-.59A5.29,5.29,0,0,0,58.53,26.55Z"/><path class="cls-2" d="M36.87,52.41H26.3a13.22,13.22,0,0,1-6.36-1.56.67.67,0,0,1-.43-.69q0-9.85,0-19.71c0-.36.09-.58.44-.69a4.16,4.16,0,0,0,2.55-2.61c2.1-4.72,4.3-9.4,6.47-14.09a3,3,0,0,0,.3-1.32c0-2.32,0-4.64,0-7a.66.66,0,0,1,.48-.71,3.13,3.13,0,0,1,3.77.53,9,9,0,0,1,3,5.66,16.9,16.9,0,0,1-.46,4.47,40.32,40.32,0,0,1-1.78,6.59c-.29.84,0,1.54.69,1.73a3.36,3.36,0,0,0,.9.1H52.11a4,4,0,0,1,2.5.77,3.63,3.63,0,0,1,0,5.73l-.13.11c-1.06.81-1,1.65.08,2.39a3,3,0,0,1,1.31,1.67,3,3,0,0,1-2.27,3.86,1.74,1.74,0,0,0-1,.46c-.46.51-.4,1.15.18,1.83A3,3,0,0,1,51.08,45a1.23,1.23,0,0,0-.77,2.19,2.93,2.93,0,0,1,.59,3.42,3.07,3.07,0,0,1-3.06,1.78Z"/></g></g></svg>