<svg xmlns="http://www.w3.org/2000/svg" viewBox="0 0 26.04 32.25"><defs><style>.cls-1{fill:#666;}.cls-2{fill:#676767;}</style></defs><g id="Layer_2" data-name="Layer 2"><g id="Layer_1-2" data-name="Layer 1"><path class="cls-1" d="M18.09,27.07c1.21-3.78-1.37-6.27-4.61-6.35-2.36-.06-4.26.7-5.41,2.87-.8,1.49-.57,2.5.92,3.6-.64-.07-1.15-.1-1.65-.17s-1-.16-1.52-.25A37.88,37.88,0,0,1,.87,25.6,1,1,0,0,1,0,24.55a11.41,11.41,0,0,1,.14-2.92,5.66,5.66,0,0,1,2.44-3.69,22.74,22.74,0,0,1,4.25-2.25,8.55,8.55,0,0,0,1.26-.6,2.11,2.11,0,0,0,.72-3A8.76,8.76,0,0,1,7.3,8.57c-.12-1.68-.62-3.36,0-5.07A5,5,0,0,1,11.63.12a8.25,8.25,0,0,1,4.2.36A5.14,5.14,0,0,1,19,6.11c-.12.8,0,1.6-.19,2.39a12.7,12.7,0,0,1-1.67,3.67,2.14,2.14,0,0,0,.51,2.72,5.65,5.65,0,0,0,1.35.72,22.73,22.73,0,0,1,4.27,2.21A5.74,5.74,0,0,1,26,22.74c.1,3.09.23,2.53-2.31,3.28A30.12,30.12,0,0,1,18.09,27.07Z"/><path class="cls-1" d="M13.21,22.54a4,4,0,0,1,1.95.41,2.54,2.54,0,0,1,.36,4.38c-.35.26-.75.46-1.12.7s-.52.3-.54.6c0,.67-.45.69-1,.69-1.35,0-1.69-.62-1-1.84a3,3,0,0,1,1.33-1.08c.5-.28.88-.63.8-1.26a.67.67,0,0,0-.67-.6,1.24,1.24,0,0,0-1.37.72c-.16.29-.23.81-.64.74a3.53,3.53,0,0,1-1.78-.72c-.22-.17-.05-.47.06-.71A3.52,3.52,0,0,1,13.21,22.54Z"/><path class="cls-2" d="M12.69,32.25c-1.15,0-1.34-.19-1.33-1.26s.24-1.24,1.38-1.24,1.32.2,1.31,1.29S13.89,32.25,12.69,32.25Z"/></g></g></svg>