<svg xmlns="http://www.w3.org/2000/svg" viewBox="0 0 87.11 87.25"><defs><style>.cls-1{fill:#fee570;}.cls-2{fill:#fdbf00;}.cls-3{fill:#adacb2;}.cls-4{fill:#eab200;}.cls-5{fill:#d9a600;}</style></defs><g id="Layer_2" data-name="Layer 2"><g id="Layer_1-2" data-name="Layer 1"><path class="cls-1" d="M54.35,25.92a1,1,0,0,0,.73,0A4.83,4.83,0,0,1,60.66,28a1.24,1.24,0,0,1,.66.94,5.17,5.17,0,0,1-1.17,5.21c-1,1.11-2.1,2.13-3.25,3.26a5,5,0,0,1,5.24.79A5.23,5.23,0,0,1,63.78,41a5,5,0,0,1-1.45,4.74C60.6,47.5,58.85,49.24,57.06,51A4.93,4.93,0,0,1,64,54.6a4.82,4.82,0,0,1-1.33,4.62q-11,11-22,22a22.15,22.15,0,0,1-9,5.13,12.53,12.53,0,0,1-1.25.2l-4.12.72H22.32c-.88-.18-1.8-.07-2.68-.24A24.16,24.16,0,0,1,7.52,80.85,23.53,23.53,0,0,1,.64,69.52a14.75,14.75,0,0,1-.56-3.85c0-.25.09-.51-.08-.74V61.18c.31-1.51.43-3.06.84-4.56A24.85,24.85,0,0,1,7,45.55c3.75-3.83,7.56-7.59,11.35-11.38a3.26,3.26,0,0,1,5.21.34c.44.56.68,1.23,1.11,1.79a5.53,5.53,0,0,1,.13,4.59,3.85,3.85,0,0,1-.32.68c2.63-2.59,5.2-5.26,7.87-7.83.37,0,.53-.3.74-.51,2-2,4-3.91,6-6a5,5,0,0,1,7.31.07c.17.21.31.5.66.46a5.52,5.52,0,0,1,.39,4.65l5.24-5.24A7.23,7.23,0,0,1,54.35,25.92Z"/><path class="cls-2" d="M62.16,51.83a5.12,5.12,0,0,0-5.62-.34l-.1-.2c.54-.52,1.09-1,1.62-1.56,1.35-1.33,2.69-2.69,4-4a5,5,0,0,0,1.49-4.64,4.32,4.32,0,0,1,.61-.92,1.3,1.3,0,0,0,0-1.71,1.19,1.19,0,0,0-1.66-.31,2.07,2.07,0,0,1-.56.2,5.38,5.38,0,0,0-5.74-.64c1.15-1.14,2.31-2.28,3.45-3.43A5,5,0,0,0,60.66,28L62,26.66a4.92,4.92,0,0,1,7-.13,5,5,0,0,1,0,7c-1.2,1.24-2.47,2.42-3.66,3.7a6.18,6.18,0,0,1,3.3-.52,4.59,4.59,0,0,1,3.82,3.23A4.81,4.81,0,0,1,71.29,45c-1.69,1.77-3.44,3.47-5.17,5.19a4.77,4.77,0,0,0-.68.67,6.62,6.62,0,0,1,3.33-.51,4.6,4.6,0,0,1,3.82,3.22,4.84,4.84,0,0,1-1.15,5.12c-1.51,1.58-3.08,3.1-4.63,4.64q-8,8-15.89,15.91a24.62,24.62,0,0,1-14.36,7.28,20.78,20.78,0,0,1-6.2,0A26.5,26.5,0,0,0,39,82.32a23.15,23.15,0,0,0,2.06-1.77L62.34,59.26a4.91,4.91,0,0,0,1.44-4.58,2.55,2.55,0,0,1,.56-.82,1.37,1.37,0,0,0,.15-1.71c-.37-.6-.9-.71-1.68-.42A.82.82,0,0,1,62.16,51.83Z"/><path class="cls-3" d="M87.09,7.63a1.43,1.43,0,0,1-.49,1.13c-3,3-6,6-9,9a1.55,1.55,0,0,1-2.27.11,1.58,1.58,0,0,1,.16-2.28l8.91-8.91a1.56,1.56,0,0,1,1.86-.39A1.31,1.31,0,0,1,87.09,7.63Z"/><path class="cls-3" d="M33.58,13.67a1.25,1.25,0,0,1-1.29-.86c-1.53-3.56-3.07-7.12-4.57-10.7a1.48,1.48,0,0,1,.9-2A1.46,1.46,0,0,1,30.53,1Q32.78,6.22,35,11.42A1.49,1.49,0,0,1,33.58,13.67Z"/><path class="cls-3" d="M27.56,16.72a1.47,1.47,0,0,1-1.32-.65Q23.3,12.4,20.37,8.7a1.47,1.47,0,0,1,.17-2.25,1.43,1.43,0,0,1,2.16.32c1.78,2.17,3.52,4.37,5.27,6.56.3.38.6.75.88,1.14a1.25,1.25,0,0,1,.08,1.44A1.36,1.36,0,0,1,27.56,16.72Z"/><path class="cls-3" d="M76.36,6.13a1.55,1.55,0,0,1-.25.94l-4.34,7.2a1.57,1.57,0,0,1-1.23.93A1.49,1.49,0,0,1,69,13q2.28-3.84,4.59-7.65a1.43,1.43,0,0,1,1.77-.63A1.35,1.35,0,0,1,76.36,6.13Z"/><path class="cls-3" d="M41.26,7.59c0,1.5,0,3,0,4.51,0,1.05-.51,1.56-1.47,1.57s-1.47-.52-1.48-1.56q0-4.45,0-8.93c0-1.08.55-1.66,1.51-1.64s1.43.58,1.44,1.62C41.27,4.64,41.26,6.11,41.26,7.59Z"/><path class="cls-2" d="M32.38,33.74a.64.64,0,0,1-.21.45c-2.67,2.67-5.33,5.33-8.09,8a7.3,7.3,0,0,0,.62-5.86l2.65-2.62A3.22,3.22,0,0,1,32.38,33.74Z"/><path class="cls-3" d="M78,22.81a1.33,1.33,0,0,1,.85-1.31c2-1,4-2,6-3a1.46,1.46,0,0,1,2.08.66,1.5,1.5,0,0,1-.76,2.07c-2,1-3.93,2-5.92,3A1.47,1.47,0,0,1,78,22.81Z"/><path class="cls-2" d="M54.35,25.92c-.23.63-.91.78-1.34,1.22-1.73,1.79-3.51,3.54-5.28,5.3-.19.19-.33.45-.7.53a5.32,5.32,0,0,0,0-4.61.54.54,0,0,1,0-.56l1.09-1.08A4.86,4.86,0,0,1,54.35,25.92Z"/><path class="cls-4" d="M35.83,59.66a1.48,1.48,0,0,1-1.35-2.17,3.37,3.37,0,0,1,.63-.79L52.75,39c.1-.1.2-.2.31-.29a1.57,1.57,0,0,1,2.28-.16c.73.71.69,1.55-.15,2.39q-9,9.08-18.12,18.13A1.56,1.56,0,0,1,35.83,59.66Z"/><path class="cls-4" d="M27.42,51.32A1.59,1.59,0,0,1,28,50L43.75,34.24A1.6,1.6,0,0,1,46.16,34a1.74,1.74,0,0,1-.25,2.42L30.25,52.12c-.9.89-1.71.93-2.44.18A1.16,1.16,0,0,1,27.42,51.32Z"/><path class="cls-4" d="M42.71,66.63a1.54,1.54,0,0,1-1.3-.83,1.36,1.36,0,0,1,0-1.45,2.43,2.43,0,0,1,.44-.52L53.26,52.45A1.51,1.51,0,0,1,56,53a1.56,1.56,0,0,1-.59,1.66c-1.53,1.55-3.08,3.1-4.63,4.64-2.23,2.23-4.46,4.45-6.68,6.69A2.12,2.12,0,0,1,42.71,66.63Z"/><path class="cls-4" d="M23.52,44.34a1.66,1.66,0,0,1-.65,1.34c-2.9,2.91-5.81,5.83-8.73,8.73-1,1-2.3.86-2.77-.3a1.39,1.39,0,0,1,.34-1.63q4.59-4.62,9.21-9.22a1.39,1.39,0,0,1,1.71-.33A1.37,1.37,0,0,1,23.52,44.34Z"/><path class="cls-5" d="M62,38.32c.93-.83,1.55-.87,2.28-.16a1.54,1.54,0,0,1,0,2.26,6.86,6.86,0,0,1-.68.64A5.33,5.33,0,0,0,62,38.32Z"/><path class="cls-5" d="M62.16,51.83c.53-.22,1-.69,1.65-.48a1.63,1.63,0,0,1,.81,2.52,8.18,8.18,0,0,1-.85.81A5.59,5.59,0,0,0,62.16,51.83Z"/></g></g></svg>