<svg xmlns="http://www.w3.org/2000/svg" viewBox="0 0 35.85 35.56"><defs><style>.cls-1{fill:#666;}</style></defs><g id="Layer_2" data-name="Layer 2"><g id="Layer_1-2" data-name="Layer 1"><path class="cls-1" d="M10.19,23.33c3,0,5.8,0,8.61,0a10.08,10.08,0,0,0,7.29-3,10.72,10.72,0,0,0,3-10.62,5.92,5.92,0,0,1,2.13.78,8.33,8.33,0,0,1,4.55,7.44c.09,5.75,0,11.51,0,17.27,0,.09,0,.17,0,.4l-2.72-3c-1.52-1.71-3-3.4-4.54-5.13a1.52,1.52,0,0,0-1.25-.57c-3.38,0-6.76,0-10.14,0A8.73,8.73,0,0,1,10.19,23.33Z"/><path class="cls-1" d="M20.11,13.82c-1.11,0-1.07,0-1.14-1.09A2.09,2.09,0,0,1,19.69,11q3.86-3.76,7.62-7.61c.47-.49.73-.44,1.12,0a13.36,13.36,0,0,0,1.19,1.19c.24.23.32.38,0,.66q-4.16,4.14-8.29,8.32C21,14,20.49,13.74,20.11,13.82Z"/><path class="cls-1" d="M32.84,2c-.13.14-.25.28-.38.41-1,1-1,1-2,0-1.19-1.18-1.18-1.18.1-2.28.19-.16.31-.23.51,0,.53.55,1.08,1.08,1.62,1.63A2.67,2.67,0,0,1,32.84,2Z"/><path class="cls-1" d="M27,10.84l-.55.53-4.13,4.17a1,1,0,0,1-.78.38c-1.37,0-2.75,0-4.12,0-.41,0-.52-.13-.52-.52,0-1.31,0-2.62,0-3.92a1.26,1.26,0,0,1,.41-1C19,8.75,20.66,7,22.38,5.36c.47-.46.33-.59-.17-.81a9,9,0,0,0-3.52-.76c-3.36,0-6.72-.08-10.07,0A8.55,8.55,0,0,0,.79,8.89C.42,9.62.34,10.44,0,11.17V29.92a3.59,3.59,0,0,0,.36-.32c2.34-2.62,4.69-5.25,7-7.89a1.31,1.31,0,0,1,1.07-.49c3.43,0,6.86,0,10.28,0a8.72,8.72,0,0,0,8.53-7.33A5.19,5.19,0,0,0,27,10.84ZM11.34,15.23c0,.29-.08.41-.39.41a30,30,0,0,1-3.42,0c-.89-.11-.21-.94-.37-1.42-.09-.26-.17-.68.4-.65s1.17,0,1.75,0H9.8C11.47,13.54,11.46,13.54,11.34,15.23Zm.58-3.79H7.65c-.37,0-.51-.08-.52-.49,0-1.61-.06-1.61,1.56-1.61H10.3c.86,0,1.72,0,2.59,0,.4,0,.56.07.56.53C13.46,11.44,13.48,11.44,11.92,11.44Z"/></g></g></svg>