<svg xmlns="http://www.w3.org/2000/svg" viewBox="0 0 20.11 22.92"><defs><style>.cls-1{fill:#707070;}</style></defs><g id="Layer_2" data-name="Layer 2"><g id="Layer_1-2" data-name="Layer 1"><path class="cls-1" d="M17.86,6.51h-16c-.61,0-.71.13-.65.73l.12,1.51c.15,2,.32,3.92.48,5.87s.35,4.07.51,6.1a2,2,0,0,0,1.83,2.2H16a1.81,1.81,0,0,0,1.61-1.12,3.33,3.33,0,0,0,.22-1l.48-5.83c.2-2.44.39-4.89.61-7.34C19,6.46,18.85,6.51,17.86,6.51ZM6.73,20.23c-.42,0-.67-.28-.71-.84-.2-3.35-.41-6.69-.63-10h0c0-.21,0-.42,0-.62A.61.61,0,0,1,6,8.08a.6.6,0,0,1,.7.55c.06.56.09,1.12.13,1.69.18,3,.37,6,.55,9C7.4,19.88,7.16,20.21,6.73,20.23Zm4-1a2.32,2.32,0,0,1,0,.53.61.61,0,0,1-.66.5.6.6,0,0,1-.6-.5,2.32,2.32,0,0,1,0-.53V9.1c0-.71.22-1,.69-1s.65.34.65,1V19.2Zm3.94-9h0q-.3,4.61-.58,9.23c0,.35-.1.65-.46.78a.67.67,0,0,1-.88-.74c.05-1.13.13-2.26.2-3.39l.42-6.74c0-.19,0-.38,0-.58a.7.7,0,0,1,.74-.67.69.69,0,0,1,.59.77C14.73,9.28,14.7,9.73,14.67,10.18Z"/><path class="cls-1" d="M18.66,2.7c-1.11,0-2.23,0-3.35,0-.43,0-.57-.08-.57-.55A2,2,0,0,0,12.55,0C10.94,0,9.33.07,7.72,0A2.12,2.12,0,0,0,5.36,2.32c0,.33-.1.39-.4.39-1.18,0-2.36,0-3.53,0a1.5,1.5,0,0,0-.85.24,1.34,1.34,0,0,0,.84,2.44H18.67a1.34,1.34,0,1,0,0-2.68Zm-5.25-.15c-.07.22-.23.15-.36.15H10c-1,0-1.94,0-2.9,0-.3,0-.42-.07-.41-.39,0-.75.2-1,1-1h4.87A.86.86,0,0,1,13.41,2.55Z"/></g></g></svg>