<svg xmlns="http://www.w3.org/2000/svg" viewBox="0 0 24.97 19.63"><defs><style>.cls-1{fill:#2b7dfe;}.cls-2{fill:#2b7efe;}</style></defs><g id="Layer_2" data-name="Layer 2"><g id="Layer_1-2" data-name="Layer 1"><path class="cls-1" d="M24.93,1.25a1.23,1.23,0,0,0-.66-1,1.82,1.82,0,0,0-1-.26H1.5A1.65,1.65,0,0,0,.32.6,1.43,1.43,0,0,0,0,1.67V18a1.45,1.45,0,0,0,.62,1.3,1.78,1.78,0,0,0,1,.32H23.52a1.68,1.68,0,0,0,1.14-.57,1.61,1.61,0,0,0,.31-.86V1.44A.43.43,0,0,1,24.93,1.25ZM23.38,12.92v.22c-.12,0-.17-.08-.23-.14l-2.86-2.6a1.18,1.18,0,0,0-1.13-.29,1.25,1.25,0,0,0-.59.36c-1,1-2,1.95-2.93,2.94-.14.15-.21.13-.34,0l-6-7.14a1.21,1.21,0,0,0-2,0l-5.51,6.4c-.05.06-.09.14-.18.16s0-.17,0-.25c0-3.52,0-7,0-10.55,0-.24.06-.31.31-.31q10.59,0,21.18,0c.21,0,.3,0,.3.28Q23.38,7.45,23.38,12.92Z"/><path class="cls-2" d="M18.82,8A2.18,2.18,0,1,1,21,5.87,2.18,2.18,0,0,1,18.82,8Z"/></g></g></svg>