<svg xmlns="http://www.w3.org/2000/svg" viewBox="0 0 88.69 84.97"><defs><style>.cls-1{fill:#01579a;}.cls-2{fill:#ebeef0;}.cls-3{fill:#0277bc;}</style></defs><g id="Layer_2" data-name="Layer 2"><g id="Layer_1-2" data-name="Layer 1"><path class="cls-1" d="M88.69,51.67a9.4,9.4,0,0,1-2,4.5,7.32,7.32,0,0,1-1.89,1.62c-.49.25-.63.48-.4,1.05A8.16,8.16,0,0,1,81,68.93c-.42.26-.53.43-.34.94a8.25,8.25,0,0,1-7.73,11.39c-11.51.08-23,0-34.55,0a19.37,19.37,0,0,1-8.18-1.93,1,1,0,0,0-.63-.16c0,1.14,0,2.29,0,3.44,0,1.69-.68,2.36-2.36,2.36H2.36C.64,85,0,84.33,0,82.62V39.32c0-1.72.67-2.38,2.43-2.38H26.68c2.24,0,2.55.25,3,2.42.43,0,.47-.39.59-.65l10.13-22a2.81,2.81,0,0,0,.27-1.25c0-3.78,0-7.56,0-11.34A2.43,2.43,0,0,1,42,1.83a14.53,14.53,0,0,1,4-1.61,7.26,7.26,0,0,1,6.62,1.64c4.62,3.84,7,8.64,6.4,14.79a55.48,55.48,0,0,1-2.48,11.9c-.32,1-.3,1,.69,1H79.08A9.28,9.28,0,0,1,88.24,36c.18.54.3,1.09.45,1.64v2.6a7.89,7.89,0,0,1-1.78,4.29.58.58,0,0,0,0,.89,6.93,6.93,0,0,1,1.78,4.18Z"/><path class="cls-2" d="M55.87,77.61h-16a19.88,19.88,0,0,1-9.64-2.36,1,1,0,0,1-.65-1q0-14.94,0-29.87c0-.54.14-.87.66-1,2-.63,3-2.08,3.87-4,3.19-7.15,6.52-14.24,9.81-21.35a4.6,4.6,0,0,0,.44-2c0-3.52,0-7,0-10.56a1,1,0,0,1,.72-1.09c2.09-.92,4-.86,5.72.82a13.55,13.55,0,0,1,4.59,8.57,26.39,26.39,0,0,1-.69,6.78,61.71,61.71,0,0,1-2.71,10c-.44,1.27,0,2.32,1,2.62a5.15,5.15,0,0,0,1.36.14q12.3,0,24.59,0a6.06,6.06,0,0,1,3.8,1.17,5.51,5.51,0,0,1,.08,8.69l-.21.16c-1.59,1.23-1.57,2.5.13,3.63a4.61,4.61,0,0,1,2,2.52,4.52,4.52,0,0,1-3.45,5.86,2.6,2.6,0,0,0-1.54.69c-.7.78-.62,1.75.28,2.78a4.59,4.59,0,0,1-2.63,7.66c-1.87.37-2.41,1.88-1.17,3.31a4.49,4.49,0,0,1,.9,5.2,4.66,4.66,0,0,1-4.64,2.69C67,77.6,61.42,77.61,55.87,77.61Z"/><path class="cls-3" d="M25.81,61c0,6.44,0,12.87,0,19.31,0,.74-.17,1-.95,1-6.78,0-13.57,0-20.35,0-.73,0-.91-.23-.9-.93q0-19.44,0-38.87c0-.7.16-.94.9-.94q10.22,0,20.43,0c.71,0,.87.23.87.9C25.8,48,25.81,54.5,25.81,61Z"/></g></g></svg>