<svg xmlns="http://www.w3.org/2000/svg" viewBox="0 0 88.5 72.97"><defs><style>.cls-1{fill:#d6443e;}</style></defs><g id="Layer_2" data-name="Layer 2"><g id="Layer_1-2" data-name="Layer 1"><path class="cls-1" d="M88.5,22.05v4.66a11.63,11.63,0,0,0-.21,1.95c-.3,3.49-1.86,6.54-3.55,9.49A57.2,57.2,0,0,1,76,49.36a121.23,121.23,0,0,1-16.36,14,167.69,167.69,0,0,1-14.4,9.32,1.74,1.74,0,0,1-1.94,0A164.81,164.81,0,0,1,21.22,57.25c-2.12-1.77-4.15-3.63-6.14-5.54A69.93,69.93,0,0,1,5.67,40.85,32.06,32.06,0,0,1,.49,30a26.49,26.49,0,0,1-.43-7.28c.05-.95.06-1.9.17-2.84A20.63,20.63,0,0,1,4,10.64a23.92,23.92,0,0,1,8.26-7.58,23.67,23.67,0,0,1,10.5-3A25.65,25.65,0,0,1,32,1.18,24.76,24.76,0,0,1,43.62,9.49c.67.84.7.84,1.37,0a25.58,25.58,0,0,1,8.07-6.78A23.75,23.75,0,0,1,63,0,25.2,25.2,0,0,1,70.9.85a24.13,24.13,0,0,1,9.29,4.94,24.34,24.34,0,0,1,5.45,6.51,18.58,18.58,0,0,1,2.78,9.34C88.42,21.78,88.39,21.93,88.5,22.05Z"/></g></g></svg>