<svg xmlns="http://www.w3.org/2000/svg" viewBox="0 0 31.65 35.84"><defs><style>.cls-1{fill:#666;}.cls-2{fill:#676767;}</style></defs><g id="Layer_2" data-name="Layer 2"><g id="Layer_1-2" data-name="Layer 1"><path class="cls-1" d="M17,0a4.42,4.42,0,0,0,1.24.36A7.88,7.88,0,0,1,22.52,12a8,8,0,0,0-1.28,2.54c-.06.26-.23.3-.47.3-1.16,0-2.33,0-3.49,0-.37,0-.42-.17-.42-.47,0-.93,0-1.87,0-2.8a1,1,0,0,1,.58-1,3.09,3.09,0,0,0,1.44-3.49,3.15,3.15,0,0,0-6-.13,3.1,3.1,0,0,0,1.45,3.66.82.82,0,0,1,.52.86c0,1,0,1.91,0,2.86,0,.44-.13.56-.56.55-1.09,0-2.19,0-3.29,0-.34,0-.5-.11-.57-.44a5.63,5.63,0,0,0-.9-1.88A7.88,7.88,0,0,1,14.14.17c.15,0,.34,0,.43-.17Z"/><path class="cls-1" d="M10.76,17H21a5.07,5.07,0,0,1-3.35,3.85.89.89,0,0,0-.73,1c.05,1.42,0,1.42,1.43,1.42,3.2,0,6.39,0,9.59,0,.48,0,.65.11.63.61,0,1,0,2.06,0,3.08a.75.75,0,0,0,.57.86,4.14,4.14,0,0,1,2.5,4.6,4.18,4.18,0,0,1-8.21.15,4.06,4.06,0,0,1,2.26-4.64,1.13,1.13,0,0,0,.78-1.3c0-1.25,0-1.25-1.25-1.25-2.54,0-5.08,0-7.62,0-.54,0-.73.16-.64.67a.74.74,0,0,1,0,.21,1.51,1.51,0,0,0,1,1.85,4,4,0,0,1,1.95,4.72,4.19,4.19,0,0,1-8.1-.08,4,4,0,0,1,2-4.68,1.45,1.45,0,0,0,1-1.68c-.07-1,0-1-1-1-2.63,0-5.27,0-7.9,0-.44,0-.67.09-.59.57a.74.74,0,0,1,0,.21,1.62,1.62,0,0,0,1.07,2,4,4,0,0,1,1.9,4.74,4.2,4.2,0,0,1-8.16-.45,4.07,4.07,0,0,1,2.33-4.49,1.07,1.07,0,0,0,.75-1.25c-.05-.88,0-1.78,0-2.66,0-.65.2-.75.79-.75,3.35,0,6.71,0,10.07,0,.67,0,.87-.21.78-.82a.09.09,0,0,1,0-.07c.17-.93-.14-1.41-1.11-1.75A4.59,4.59,0,0,1,10.76,17Z"/><path class="cls-2" d="M15.82,6.83a1,1,0,0,1,1,1,1,1,0,1,1-2.05,0A1,1,0,0,1,15.82,6.83Z"/></g></g></svg>