<svg xmlns="http://www.w3.org/2000/svg" viewBox="0 0 24.94 19"><defs><style>.cls-1{fill:#fe9b1d;}</style></defs><g id="Layer_2" data-name="Layer 2"><g id="Layer_1-2" data-name="Layer 1"><path class="cls-1" d="M24.94,3.67A3.65,3.65,0,0,0,21.28,0H3.67A3.67,3.67,0,0,0,.11,2.75c0,.15-.07.31-.11.47V15.78s0,.06,0,.09A3.65,3.65,0,0,0,3.72,19H21.28a3.65,3.65,0,0,0,3.66-3.67C25,11.44,25,7.56,24.94,3.67ZM23.48,15.22a2.19,2.19,0,0,1-2.32,2.32H3.79a2.2,2.2,0,0,1-2.33-2.33V3.78A2.19,2.19,0,0,1,3.78,1.46H21.15A2.2,2.2,0,0,1,23.48,3.8Z"/><path class="cls-1" d="M16.41,8.82,10.74,5.27A.74.74,0,0,0,9.55,6v7.11a.76.76,0,0,0,.38.73.71.71,0,0,0,.8-.06l5.69-3.55A.74.74,0,0,0,16.41,8.82Zm-5.39,3V7.17L14.75,9.5Z"/></g></g></svg>