<svg xmlns="http://www.w3.org/2000/svg" viewBox="0 0 312.57 91.73"><defs><style>.cls-1{fill:#59c5e1;}.cls-2{fill:#515151;}.cls-3{fill:#fff;}</style></defs><g id="Layer_2" data-name="Layer 2"><g id="Layer_1-2" data-name="Layer 1"><path class="cls-1" d="M18.26,91.73a2.8,2.8,0,0,0-1.1-.18,17.73,17.73,0,0,1-7.41-2.79A14.61,14.61,0,0,1,3.3,79.84,11.73,11.73,0,0,1,3,77c0-3.18,0-6.37,0-9.55,0-.09,0-.18,0-.26s.21,0,.28.08a16.4,16.4,0,0,0,3.84,2.77.71.71,0,0,1,.4.73c0,1.91,0,3.81,0,5.72a9.23,9.23,0,0,0,2.63,6.75,12.41,12.41,0,0,0,4.47,3,14.36,14.36,0,0,0,6.67,1,13.74,13.74,0,0,0,5-1.43L36,80.88l14.8-7.34,14.12-7c2.32-1.15,4.65-2.28,7-3.45a11.14,11.14,0,0,0,4.52-4A9,9,0,0,0,76,48.87a11.36,11.36,0,0,0-3.84-3.25c-.87-.46-1.77-.89-2.65-1.33-.44-.22-.44-.22-.24-.63.53-1.09,1.06-2.17,1.6-3.25.19-.38.2-.39.56-.21a43.06,43.06,0,0,1,3.87,2,14.24,14.24,0,0,1,6.47,8.27A13.21,13.21,0,0,1,79.18,63a16.51,16.51,0,0,1-5.78,4.42c-4.49,2.21-9,4.45-13.44,6.68l-15,7.46q-7.19,3.57-14.36,7.12c-1.24.61-2.46,1.28-3.75,1.79a17.71,17.71,0,0,1-5,1.21c-.1,0-.21,0-.29.1Z"/><path class="cls-1" d="M0,53a4.38,4.38,0,0,0,.31-1.56A14.94,14.94,0,0,1,7.22,41a16.37,16.37,0,0,1,6.65-2.41,18.75,18.75,0,0,1,10,1.17A14.26,14.26,0,0,1,29,43.46c.35.39.35.4,0,.73L25.18,47.7a1.14,1.14,0,0,0-.16.15c-.18.2-.32.15-.49,0a11.1,11.1,0,0,0-1.42-1.32,9.39,9.39,0,0,0-5.38-2,10.49,10.49,0,0,0-5.15.91,9,9,0,0,0-5.12,6.79,10.57,10.57,0,0,0,.65,6.28,8.67,8.67,0,0,0,5.53,5,10.07,10.07,0,0,0,8.62-.9,10.64,10.64,0,0,0,2.18-1.84c.34-.36.34-.35.71,0L29,64.36c.29.27.3.3,0,.65a14.28,14.28,0,0,1-3.53,2.9,16.4,16.4,0,0,1-6.05,2,19.38,19.38,0,0,1-3.65.18,16.91,16.91,0,0,1-10-3.62A14.8,14.8,0,0,1,.43,57.74,9.9,9.9,0,0,1,.2,56.31a1.05,1.05,0,0,0-.2-.66Z"/><path class="cls-2" d="M185.49,52.52c.47-.75.93-1.5,1.41-2.24a32,32,0,0,1,5.86-6.81,13.89,13.89,0,0,1,3.18-2.12,6.54,6.54,0,0,1,3.07-.72,4.59,4.59,0,0,1,1.17.17,3.81,3.81,0,0,1,2.87,4.45,14,14,0,0,1-1.5,4.7,28.83,28.83,0,0,1-1.61,2.87,32.33,32.33,0,0,0-2.4,4.4,6,6,0,0,0-.45,1.38c-.15.77.26,1.18,1,1a3,3,0,0,0,.85-.34,11,11,0,0,0,1.95-1.53.78.78,0,0,0,.23-.47,10.93,10.93,0,0,1,1-2.9A7.14,7.14,0,0,1,204.05,52a5,5,0,0,1,2.75-1.16.92.92,0,0,0,.75-.5c2-3.13,3.75-6.35,5.41-9.65.28-.58.49-1.2.82-1.76a6,6,0,0,1,1.65-2,2.53,2.53,0,0,1,2.19-.49A2.17,2.17,0,0,1,219.26,39a4.56,4.56,0,0,1-.21.72A17.13,17.13,0,0,0,218,47.46a45.66,45.66,0,0,1,.23,5.23,22.15,22.15,0,0,1-1.26,7,11.49,11.49,0,0,1-1.3,2.48,7.14,7.14,0,0,1-5.36,3.14,10.77,10.77,0,0,1-4.68-.56A6.84,6.84,0,0,1,202,62c-.15-.22-.25-.22-.47-.1a6.68,6.68,0,0,0-1.29.88,10.83,10.83,0,0,1-3.5,2.09,5.62,5.62,0,0,1-2.7.3,3.89,3.89,0,0,1-3.35-3.63,10.36,10.36,0,0,1,.59-4.13,37.57,37.57,0,0,1,2.7-6c.9-1.7,1.88-3.36,2.92-5,.19-.3.37-.61.57-.95a1.6,1.6,0,0,1,.25,1.1,2,2,0,0,0,.27-1.41.91.91,0,0,0-1.24-.68,4.35,4.35,0,0,0-1.27.69,20.94,20.94,0,0,0-3.05,2.75A44.32,44.32,0,0,0,183.81,61c-.16.38-.31.77-.45,1.16a.67.67,0,0,0,.26.93c.2.16.48.26.47.6a1.1,1.1,0,0,1-.55.82,3.61,3.61,0,0,1-1.56.55,4.83,4.83,0,0,1-2.14,0,2.72,2.72,0,0,1-1.8-1.44,5.41,5.41,0,0,1-.54-2,12.94,12.94,0,0,1,.08-3.17.89.89,0,0,0,0-.15c-.2.06-.28.24-.4.36a29.76,29.76,0,0,1-4.58,4.18A12.53,12.53,0,0,1,168.3,65a4.76,4.76,0,0,1-2.34.12,3.94,3.94,0,0,1-3-3.81c0-.19,0-.39,0-.7l-.49.48a17.26,17.26,0,0,1-3.31,2.84,8,8,0,0,1-3.45,1.3,4.52,4.52,0,0,1-2.81-.58,3.76,3.76,0,0,1-1.84-2.9,5.83,5.83,0,0,1,.59-3.55c0-.09.13-.18,0-.29.06.06.08,0,.08,0l-.08,0a4.19,4.19,0,0,0-1.39,3.22,1.06,1.06,0,0,1-.36.84,11.26,11.26,0,0,1-5,3,5.37,5.37,0,0,1-2,.16A3.35,3.35,0,0,1,140.13,63a7.3,7.3,0,0,1-.57-3.1v-.69a1,1,0,0,0-.42.41,22.75,22.75,0,0,1-3.77,3.7,9.27,9.27,0,0,1-3.5,1.73,4.85,4.85,0,0,1-2.51,0,3.86,3.86,0,0,1-2.86-3.48,10.26,10.26,0,0,1,.5-3.93,27.29,27.29,0,0,1,3.32-7.06,8.13,8.13,0,0,0,1.09-2.33A3.42,3.42,0,0,0,131.5,47a1.46,1.46,0,0,0-.27-.77c-.23.07-.26.28-.35.44-1.41,2.59-2.87,5.15-4.47,7.64A46.87,46.87,0,0,1,122.26,60a14.41,14.41,0,0,1-1.81,1.77,6.13,6.13,0,0,1-1.75,1,.74.74,0,0,0-.41.32,15.48,15.48,0,0,1-8.5,5.78,23,23,0,0,1-6.28.91,33.18,33.18,0,0,1-8.77-1,14.83,14.83,0,0,1-7.51-4.44,15.21,15.21,0,0,1-3.47-6.87A21.18,21.18,0,0,1,84.27,46a8.12,8.12,0,0,1,2.6-3.84,5.79,5.79,0,0,1,4.6-1.29A4.71,4.71,0,0,1,95.39,45a9,9,0,0,1-.23,3.69,4.15,4.15,0,0,1-1,1.82,2.46,2.46,0,0,1-2.36.76,1.57,1.57,0,0,1-1.37-1.62,6.59,6.59,0,0,1,.36-2A5.54,5.54,0,0,0,91,45.47c0-.07,0-.15,0-.21a.9.9,0,0,0-.59-.72.84.84,0,0,0-.9.35,3.94,3.94,0,0,0-.77,1.82,27,27,0,0,0-.49,4.66,19.25,19.25,0,0,0,.94,6.7,11.29,11.29,0,0,0,8.48,7.61,17.33,17.33,0,0,0,7.45.24,10.78,10.78,0,0,0,8.68-8.87,11.94,11.94,0,0,0-.53-6.32A8.89,8.89,0,0,0,112,48.48a.76.76,0,0,0-.48-.31,8.22,8.22,0,0,1-4.57-2.47s-.07,0-.11,0a1.55,1.55,0,0,0-.26.57A27.87,27.87,0,0,0,105,54.31a4.07,4.07,0,0,1-.42,1.71,2.85,2.85,0,0,1-5.33-1,11.26,11.26,0,0,1,.08-3.28c1.19-8.36,5.56-14.79,12.09-19.91a6.24,6.24,0,0,1,2.46-1.18,1.7,1.7,0,0,1,1.93.62,1.93,1.93,0,0,1,.13,2.18,2,2,0,0,1-.63.72,23.55,23.55,0,0,0-6.39,7,10.68,10.68,0,0,0-.81,1.5,5.05,5.05,0,0,0,1.31.25,14.54,14.54,0,0,0,5.26-.15,7.88,7.88,0,0,0,5.69-4.54,12.08,12.08,0,0,0,1.22-4.55A6.54,6.54,0,0,0,120.1,29,6.2,6.2,0,0,0,116.67,27,9.76,9.76,0,0,0,107,29.92a9.79,9.79,0,0,0-2.64,4.45,4.8,4.8,0,0,0-.11,2,3.67,3.67,0,0,1-.08,1.4,1.1,1.1,0,0,1-1.46.89,2.55,2.55,0,0,1-1-.46,6.67,6.67,0,0,1-2.13-8.79,13,13,0,0,1,3.8-4.21A16.31,16.31,0,0,1,111.22,22a12.38,12.38,0,0,1,10.21,3.09,11.12,11.12,0,0,1,3.38,6.26,14.91,14.91,0,0,1-.57,8.44,13.56,13.56,0,0,1-6.84,7.53,9.42,9.42,0,0,1-3,.89c-.12,0-.26,0-.34.15a6.14,6.14,0,0,0,1.9.22,4.63,4.63,0,0,0,1.28-.16.69.69,0,0,1,.73.2,8.11,8.11,0,0,1,2.24,3.69,11.82,11.82,0,0,1,.45,4c0,.18,0,.37,0,.65l.46-.48a43,43,0,0,0,4-5.33A77.89,77.89,0,0,0,129,44.28c.21-.39.2-.39-.09-.71a3,3,0,0,1-.8-2,7.22,7.22,0,0,1,1.37-4.45,2.84,2.84,0,0,1,2.05-1.27,3,3,0,0,1,3.12,2.05,3.57,3.57,0,0,1-.81,3c-.14.18-.26.13-.4,0a5,5,0,0,1-1.8-2.11s0-.1-.1-.1a1.4,1.4,0,0,0,.05,1.4,4.11,4.11,0,0,0,1.4,1.47,10.55,10.55,0,0,1,2.94,3,6.56,6.56,0,0,1,1,4.58,7.81,7.81,0,0,1-1.19,3.05,32.31,32.31,0,0,0-2.32,4.19,7.93,7.93,0,0,0-.65,2,1.94,1.94,0,0,0,0,.48.81.81,0,0,0,1,.76,3.3,3.3,0,0,0,1.32-.6,15,15,0,0,0,2.48-2.23,34.4,34.4,0,0,0,4.14-5.46c.23-.38.41-.79.62-1.19a22.57,22.57,0,0,1,4.41-6,13.72,13.72,0,0,1,5-3.17,6.72,6.72,0,0,1,3.55-.39,4.47,4.47,0,0,1,3.61,3c0,.07,0,.15.15.18a2.15,2.15,0,0,0,.38-.41,10.91,10.91,0,0,1,2.16-2,3.67,3.67,0,0,1,2.17-.72A2.07,2.07,0,0,1,166,42.89a5.24,5.24,0,0,1-.51,2,10.63,10.63,0,0,1-1.15,2,88.53,88.53,0,0,0-5.12,7.74,21.45,21.45,0,0,0-1.39,2.8,6.09,6.09,0,0,0-.34,1.25c-.11.76.34,1.17,1.09,1a3,3,0,0,0,1.07-.51A14.06,14.06,0,0,0,162,57a31,31,0,0,0,4.5-6.11,63.94,63.94,0,0,1,4.3-6.73,11.28,11.28,0,0,1,2.71-2.76,3.69,3.69,0,0,1,2.26-.76A2.07,2.07,0,0,1,178,42.88a4.54,4.54,0,0,1-.41,1.77A11.93,11.93,0,0,1,176.17,47c-1.72,2.38-3.39,4.79-4.87,7.33a22.57,22.57,0,0,0-1.5,3,6.56,6.56,0,0,0-.37,1.24c-.16.91.32,1.34,1.21,1.08a6,6,0,0,0,1.68-.85,26.79,26.79,0,0,0,4-3.31c.58-.56,1.13-1.16,1.66-1.77a11.46,11.46,0,0,0,1.93-3,40.27,40.27,0,0,1,3.22-6.09,11.93,11.93,0,0,1,2.48-2.91,4.31,4.31,0,0,1,3.4-1,1.73,1.73,0,0,1,1.71,2,3.28,3.28,0,0,1-.1.7,7.85,7.85,0,0,1-1.26,2.6A61.34,61.34,0,0,0,186,51.37c-.2.36-.39.73-.58,1.09,0,.08-.18.16,0,.25S185.5,52.62,185.49,52.52Zm-13.83-7.35a.18.18,0,0,1,.13-.09,14.55,14.55,0,0,1,4.65-3.21,1.29,1.29,0,0,0-1.2-.2,3,3,0,0,0-1.17.64,11.29,11.29,0,0,0-2.2,2.48c-.07.09-.13.18-.07.3l-.14.09h0ZM149.31,44l-.08,0,.07,0,.08,0,0,0ZM215,38.74c-.07.07-.18.16-.1.24s.18,0,.24-.12a13.76,13.76,0,0,1,2.61-1.56,1.42,1.42,0,0,0-1.46.15A4.66,4.66,0,0,0,215,38.74Zm-54.25,4.62a11.12,11.12,0,0,1,3.95-1.66.37.37,0,0,0-.22-.18,1.81,1.81,0,0,0-1.46.07,6.61,6.61,0,0,0-2.22,1.59.14.14,0,0,0,0,.19s-.09-.06-.1,0ZM86.54,44.75a10.68,10.68,0,0,1,4.25-3l-.23-.05a4.17,4.17,0,0,0-4,2.87.86.86,0,0,0,0,.16h0Zm97.78.44A16,16,0,0,1,189,42a1.35,1.35,0,0,0-1.21-.18,3.41,3.41,0,0,0-1.25.72,11.86,11.86,0,0,0-2.1,2.37c-.07.09-.13.18-.07.29s-.06,0-.08,0h0ZM102.75,27.47c-.18-.06-.26.09-.36.18A6.45,6.45,0,0,0,100.25,31a6.92,6.92,0,0,0-.12,2.9c.14-.54.23-1.08.4-1.6A24.73,24.73,0,0,1,102.46,28a1.73,1.73,0,0,0,.28-.58c.05-.05,0,.05,0,0v0S102.73,27.43,102.75,27.47Zm53.49,19.14c0-1-.33-1.3-1.09-1.23a2.34,2.34,0,0,0-.87.28,7.37,7.37,0,0,0-1.72,1.2,27.17,27.17,0,0,0-6.76,9.58,6.28,6.28,0,0,0-.45,1.66c-.09.78.24,1.1,1,1a2.51,2.51,0,0,0,.72-.22,6.09,6.09,0,0,0,1.18-.76,15.12,15.12,0,0,0,1.8-1.78,59.65,59.65,0,0,0,4-5.2,14.22,14.22,0,0,0,1.82-3.42A4.7,4.7,0,0,0,156.24,46.61Zm55.9,1.56c-.17.07-.2.2-.25.3-.46.84-.94,1.66-1.46,2.46-.27.44-.23.39.11.62a2.19,2.19,0,0,1,1,1.66c0,.28.15.61-.14.8s-.54,0-.78-.19a1.41,1.41,0,0,0-1.62,0,2.56,2.56,0,0,0-.62.51,4.53,4.53,0,0,0-1.12,2.7,2,2,0,0,0,.85,1.92,2.35,2.35,0,0,0,3.44-.82,6,6,0,0,0,.65-1.88,22,22,0,0,0,.17-6C212.29,49.57,212.21,48.88,212.14,48.17Zm-62.67-4.24a17.93,17.93,0,0,1,3.34-1.21,9.53,9.53,0,0,1,3.56-.23,2,2,0,0,0-.81-.6,3.14,3.14,0,0,0-2-.12,10.8,10.8,0,0,0-4,2A1.12,1.12,0,0,0,149.47,43.93Zm-17.14-7.27a1.54,1.54,0,0,0-1.53.37,4.24,4.24,0,0,0-1.21,2.3A7.55,7.55,0,0,1,132.33,36.66Zm-20.41-4a18.73,18.73,0,0,1,3.3-1.07.88.88,0,0,0-.74-.24A4.89,4.89,0,0,0,111.92,32.61ZM185.2,52.89l0,0v0ZM111.77,32.68l0,0h0Z"/><path class="cls-2" d="M279.79,51.64c.74-1.09,1.46-2.19,2.21-3.26a25.33,25.33,0,0,1,4.44-4.92,10,10,0,0,1,3.3-1.91,4.9,4.9,0,0,1,3.63.17A3.55,3.55,0,0,1,295.55,45a1.22,1.22,0,0,0,.06.56,1.31,1.31,0,0,0,.42-.39,16.82,16.82,0,0,1,3.1-2.67,7.44,7.44,0,0,1,2.81-1.19,4.67,4.67,0,0,1,3.77.9A3.42,3.42,0,0,1,307,44.93a8.24,8.24,0,0,1-.49,3.07,21.88,21.88,0,0,1-2.41,4.93,36.51,36.51,0,0,0-2.55,4.63,7.31,7.31,0,0,0-.52,1.58,2.47,2.47,0,0,0-.05.38.68.68,0,0,0,.86.75,2.91,2.91,0,0,0,1.13-.48,11.77,11.77,0,0,0,2-1.66,36.13,36.13,0,0,0,5.09-6.41,3.39,3.39,0,0,1,.72-.88,1.28,1.28,0,0,1,1-.29.79.79,0,0,1,.78.86,2.52,2.52,0,0,1-.3,1.4,41.56,41.56,0,0,1-7.55,10.07A13.82,13.82,0,0,1,301.81,65a7.52,7.52,0,0,1-2.6.86,4,4,0,0,1-4.62-3.58,8.93,8.93,0,0,1,.41-3.67,33.94,33.94,0,0,1,2.48-5.74c.88-1.69,1.84-3.34,2.84-5a14.08,14.08,0,0,0,.85-1.45c0-.07.07-.16.18-.19.2.28.09.62.21,1a2.5,2.5,0,0,0,.28-1.36.83.83,0,0,0-1.24-.73,5,5,0,0,0-1.34.9A24.1,24.1,0,0,0,296,49.59a50.87,50.87,0,0,0-6.62,11.16,9.69,9.69,0,0,0-.67,2.1,1.5,1.5,0,0,0,.11.89,3.69,3.69,0,0,1,.19.56,1,1,0,0,1-.81,1.44,4,4,0,0,1-3.82-.91,3.81,3.81,0,0,1-1.24-2.56,9.71,9.71,0,0,1,.5-3.93A33.68,33.68,0,0,1,286,52.89c.9-1.76,1.89-3.47,2.94-5.15a8.45,8.45,0,0,0,.88-1.6c.35.3.22.73.39,1.1a2.67,2.67,0,0,0,.27-1.23.9.9,0,0,0-1.28-.85,3.9,3.9,0,0,0-1.23.76,17.65,17.65,0,0,0-2.51,2.53,48.17,48.17,0,0,0-8.34,14.47,2.41,2.41,0,0,0-.08.25c-.14.43-.13.47.25.69s.46.51.21.88a1.61,1.61,0,0,1-.63.5,5.28,5.28,0,0,1-3.62.44,2.53,2.53,0,0,1-1.75-1.48,5.69,5.69,0,0,1-.53-2.3,10.54,10.54,0,0,1,.06-2.1.86.86,0,0,0,0-.45,1.49,1.49,0,0,0-.41.42A22,22,0,0,1,267,63.28a9.32,9.32,0,0,1-3.64,1.82,4.83,4.83,0,0,1-2.56,0,3.81,3.81,0,0,1-2.75-3.28,8.94,8.94,0,0,1,.39-3.78,26.79,26.79,0,0,1,3.37-7.33A8.13,8.13,0,0,0,263,48.18a3.36,3.36,0,0,0,.07-1.18,1.29,1.29,0,0,0-.31-.76,1.65,1.65,0,0,0-.35.55,108,108,0,0,1-5.77,9.57,31,31,0,0,1-3.92,4.79,9.87,9.87,0,0,1-1.38,1.13,3.46,3.46,0,0,1-1.11.54,4.88,4.88,0,0,0-1.47.66A13.32,13.32,0,0,1,241,65.09a11.77,11.77,0,0,1-2.7-.48,6,6,0,0,1-4.44-6c0-.12,0-.24-.05-.36s-.22.16-.3.26a31.14,31.14,0,0,1-3.79,3.91,13.61,13.61,0,0,1-3.2,2.1,6.32,6.32,0,0,1-3,.61,3.23,3.23,0,0,1-2.93-2,7.55,7.55,0,0,1-.62-2.77,25.5,25.5,0,0,1,.82-7.43,47.53,47.53,0,0,1,7.8-16.48l.34-.48a.35.35,0,0,0,0-.11c-.1-.16-.28-.12-.43-.14a9,9,0,0,1-2-.5,4.58,4.58,0,0,1-.9-.48,2.31,2.31,0,0,1-.85-3,4.93,4.93,0,0,1,.81-1.26,1,1,0,0,1,.29-.25c.27-.16.51-.12.63.16.47,1.2,1.55,1.4,2.62,1.59a14.26,14.26,0,0,0,2.53.13.93.93,0,0,0,.74-.34,45.9,45.9,0,0,1,5.18-5,10.52,10.52,0,0,1,2.65-1.65,4.83,4.83,0,0,1,1.77-.42,2.52,2.52,0,0,1,2.65,2.47,3.79,3.79,0,0,1-1,2.67l-.63.75,2.43-.52c2.07-.48,4.14-.94,6.23-1.29a11.91,11.91,0,0,1,4.72,0,4.19,4.19,0,0,1,.86.31,2.84,2.84,0,0,1,1.69,2.88,4.38,4.38,0,0,1-.1.81.89.89,0,0,1-1.26.69,8.54,8.54,0,0,0-4.72-.43q-6,1-12.05,1.89a48.43,48.43,0,0,1-8.33.68.31.31,0,0,0-.2.05,9.15,9.15,0,0,0,4.55.75c0,.25-.23.37-.36.52a63.71,63.71,0,0,0-5,6.23,38.4,38.4,0,0,0-4.73,8.7,21.93,21.93,0,0,0-1.33,5.87,2.77,2.77,0,0,0,.05.86,1.05,1.05,0,0,0,1.19.92,2.59,2.59,0,0,0,1.32-.43,15.77,15.77,0,0,0,2-1.53A31,31,0,0,0,234.5,53a13.65,13.65,0,0,0,1.35-2.2,22.54,22.54,0,0,1,5.85-7.6,11.6,11.6,0,0,1,5.16-2.57,5.23,5.23,0,0,1,4.55.94A4.13,4.13,0,0,1,253,45.14a2.1,2.1,0,0,1-1.17,2,7.22,7.22,0,0,1,1.06.11,3.09,3.09,0,0,1,2.31,1.91,6.06,6.06,0,0,1,.44,2.38V52.6a.74.74,0,0,0,.3-.34,79.92,79.92,0,0,0,4.72-8c.12-.23.15-.38-.08-.59a2.8,2.8,0,0,1-.85-2,7.14,7.14,0,0,1,1.38-4.56,2.79,2.79,0,0,1,2.06-1.25,2.83,2.83,0,0,1,3.11,3.31,4,4,0,0,1-.75,1.66c-.23.3-.24.31-.54.08a4.76,4.76,0,0,1-1.74-2.08s-.07-.08-.12-.15a1.59,1.59,0,0,0,.11,1.54,4,4,0,0,0,1.34,1.39,10.4,10.4,0,0,1,2.8,2.81,6.74,6.74,0,0,1,.07,7.76c-.51.85-1,1.68-1.52,2.55a18,18,0,0,0-1.28,2.79,5.15,5.15,0,0,0-.27,1.21c0,.78.4,1.14,1.15,1a3.55,3.55,0,0,0,1.25-.61,14,14,0,0,0,2.26-2,34.81,34.81,0,0,0,4.31-5.66,3.92,3.92,0,0,0,.29-.58,43.39,43.39,0,0,1,2.91-5.47,12.72,12.72,0,0,1,2.06-2.56,5.22,5.22,0,0,1,2.85-1.55,3.43,3.43,0,0,1,1.39.06A1.72,1.72,0,0,1,284.23,43a4.4,4.4,0,0,1-.36,1.68,7.92,7.92,0,0,1-.86,1.56,61.87,61.87,0,0,0-3.29,5.32c-.06.06-.15.19-.09.21S279.78,51.74,279.79,51.64ZM238.55,27.69s-.1,0-.08,0l.07-.06c.05,0,.16,0,.1-.12.19.1.34,0,.49-.11a13.1,13.1,0,0,1,3.92-1.1c.07,0,.14,0,.14-.15a1.48,1.48,0,0,0-1.36-.4,6.29,6.29,0,0,0-3.18,1.77C238.58,27.58,238.53,27.6,238.55,27.69Zm39.32,17.93a.15.15,0,0,0,.19-.12,15,15,0,0,1,4.51-3,1.28,1.28,0,0,0-1.13-.22,3.56,3.56,0,0,0-1.44.82,11.58,11.58,0,0,0-2,2.28.34.34,0,0,0-.17.28l0,.06S277.87,45.66,277.87,45.62Zm-34-2.31A23.32,23.32,0,0,1,250,41.8c-.06-.06-.08-.1-.1-.11l-.15-.07a4.33,4.33,0,0,0-2.39-.17,9.09,9.09,0,0,0-3.62,1.71c-.12.05-.26.08-.2.29A.87.87,0,0,0,243.9,43.31Zm7.22,3.79a1.43,1.43,0,0,1-1-1,.88.88,0,0,0,0-.15.93.93,0,0,0-1.06-.65,2.67,2.67,0,0,0-.92.29,6.53,6.53,0,0,0-1.22.79,18.52,18.52,0,0,0-5.54,7.78,7.13,7.13,0,0,0-.45,3.39,3.21,3.21,0,0,0,2.11,3,5.14,5.14,0,0,0,4.81-.48,9.73,9.73,0,0,0,3.77-5.31,6.43,6.43,0,0,0,.21-2.12c.48.21.58.66.85,1.06a3.81,3.81,0,0,0-.23-1.18,1.51,1.51,0,0,0-.44-.67,1.08,1.08,0,0,0-1.21-.15.82.82,0,0,0-.48.92c0,.24,0,.47,0,.71a2.93,2.93,0,0,1-.21,1,2.18,2.18,0,0,1-2.36,1.4A1.88,1.88,0,0,1,246,54.13a4.71,4.71,0,0,1,0-2.24,5.78,5.78,0,0,1,4.22-4.6C250.48,47.21,250.77,47.17,251.12,47.1Zm-.25,1c-1.31-.25-2.91,1.06-3.23,2.61A12.91,12.91,0,0,1,250.87,48.12Zm10.21-8.65a7.51,7.51,0,0,1,2.74-2.77.58.58,0,0,0-.54-.11,1.94,1.94,0,0,0-1.24.78A5.24,5.24,0,0,0,261.08,39.47Zm18.48,12.58s0-.06-.06,0l0,0s0,.07,0,.06S279.54,52.07,279.56,52.05Z"/><path class="cls-1" d="M38.27,54.09c0-.24-.16-.39-.28-.56l-6.05-8.34-4.15-5.72c-.1-.14-.31-.27-.2-.46s.29-.07.45-.08c2.32,0,4.64,0,7,0a.85.85,0,0,1,.77.38c1.51,2.1,3,4.19,4.57,6.28l8.53,11.68,8.27,11.33.66.91a.85.85,0,0,1-.52.08H50.15a.85.85,0,0,1-.8-.4c-2.22-3.1-4.47-6.18-6.71-9.27a1.48,1.48,0,0,0-.36-.39,1.49,1.49,0,0,0-.23-.43l-3.39-4.66C38.55,54.3,38.47,54.13,38.27,54.09Z"/><path class="cls-1" d="M3,41.25a1.61,1.61,0,0,1,0-.61c0-2.93,0-5.87,0-8.8a13.58,13.58,0,0,1,3.27-8.92A17,17,0,0,1,16,17.2L17,17c.36-.06.41,0,.41.34q0,1.89,0,3.78c0,.4,0,.41-.41.49a13.5,13.5,0,0,0-3.94,1.43,10.74,10.74,0,0,0-4.7,4.75,8.78,8.78,0,0,0-.88,3.8q0,3,0,6.1a.66.66,0,0,1-.41.71,16.84,16.84,0,0,0-3.77,2.67C3.21,41.15,3.15,41.25,3,41.25Z"/><path class="cls-2" d="M38.27,54.09c.2,0,.28.21.39.35l3.39,4.66a1.49,1.49,0,0,1,.23.43q-3.48,4.8-6.94,9.63a.91.91,0,0,1-.84.44c-2.35,0-4.71,0-7.07,0h-.58Z"/><path class="cls-2" d="M47.79,51.79a.79.79,0,0,1-.28-.32c-1.13-1.53-2.25-3.07-3.38-4.61-.26-.36-.26-.36,0-.73l5-6.81a.78.78,0,0,1,.7-.39c2.29,0,4.57,0,6.86,0H57L57,39s0,0,0,.05L48,51.53C48,51.63,47.92,51.75,47.79,51.79Z"/><path class="cls-1" d="M26,24.68c0-1.31,0-2.62,0-3.93a3.18,3.18,0,0,1,3.89-3.16,4.24,4.24,0,0,1,1,.32l8.6,4.26a3.15,3.15,0,0,1,1.3,1.1A2.62,2.62,0,0,1,40,26.86a3.81,3.81,0,0,1-.65.38l-8.55,4.24a3.49,3.49,0,0,1-4.08-.64A2.79,2.79,0,0,1,26,28.78v-4.1Zm.92,0c0,1.42,0,2.84,0,4.26a1.76,1.76,0,0,0,.91,1.61,2.61,2.61,0,0,0,2.63.12c2.87-1.4,5.74-2.83,8.61-4.25a2.78,2.78,0,0,0,.74-.53,1.72,1.72,0,0,0,0-2.39A2.72,2.72,0,0,0,39,23l-8.61-4.26a2.59,2.59,0,0,0-1.83-.22,2,2,0,0,0-1.73,2.09C26.92,22,26.88,23.32,26.88,24.69Z"/><path class="cls-1" d="M49.3,19.24c0-1.31,0-2.63,0-3.94a3,3,0,0,1,2.94-3.17,3.68,3.68,0,0,1,2,.41l8.55,4.26a2.83,2.83,0,0,1,1.45,1.46,2.6,2.6,0,0,1-.86,3.13,3.86,3.86,0,0,1-.65.39L54.27,26a3.64,3.64,0,0,1-2.57.31,3,3,0,0,1-2.4-3C49.31,21.94,49.3,20.59,49.3,19.24Zm.92.07c0,1.4,0,2.81,0,4.21A1.74,1.74,0,0,0,51,25.07a2.62,2.62,0,0,0,2.77.17q4.3-2.11,8.6-4.27a2.82,2.82,0,0,0,.38-.21,1.74,1.74,0,0,0,.1-2.89,4.21,4.21,0,0,0-.64-.39l-6.92-3.42c-.55-.27-1.09-.55-1.64-.81a2.51,2.51,0,0,0-2.34.05,1.84,1.84,0,0,0-1.13,1.8C50.24,16.5,50.22,17.91,50.22,19.31Z"/><path class="cls-1" d="M35.67,9.69V6.89a2.37,2.37,0,0,1,2.9-2.36,3.42,3.42,0,0,1,.87.29l6,3a2.1,2.1,0,0,1,1.18,1.39,2,2,0,0,1-1.11,2.34c-.8.41-1.61.8-2.41,1.2l-3.77,1.87a2.6,2.6,0,0,1-2.44,0,2.11,2.11,0,0,1-1.26-2C35.66,11.67,35.67,10.68,35.67,9.69Zm2.51-4.3c-1.07,0-1.59.52-1.59,1.53,0,1.91,0,3.82,0,5.72a1.27,1.27,0,0,0,.93,1.29A1.78,1.78,0,0,0,39,13.8l5.94-3a1.79,1.79,0,0,0,.6-.45,1,1,0,0,0,0-1.38A1.64,1.64,0,0,0,45,8.59l-6-3A1.82,1.82,0,0,0,38.18,5.39Z"/><path class="cls-1" d="M57.77,31.84v2.69A2.4,2.4,0,0,1,54.65,37a3.28,3.28,0,0,1-.7-.27l-5.9-2.93a2.43,2.43,0,0,1-1.13-1,2,2,0,0,1,.56-2.47,3.87,3.87,0,0,1,.73-.45l5.86-2.89a2.6,2.6,0,0,1,2.48,0A2.16,2.16,0,0,1,57.77,29Zm-.92,0V28.92a1.28,1.28,0,0,0-1-1.35,1.89,1.89,0,0,0-1.45.17l-5.8,2.87a3.44,3.44,0,0,0-.56.33,1.09,1.09,0,0,0-.09,1.66,1.34,1.34,0,0,0,.43.32l6.09,3a1.94,1.94,0,0,0,1.21.16,1.33,1.33,0,0,0,1.18-1.37C56.82,33.77,56.85,32.8,56.85,31.83Z"/><path class="cls-1" d="M48.2,18.45c0,1,0,2,0,3a2,2,0,0,1-1.32,2,2.46,2.46,0,0,1-2.24,0c-2.07-1-4.16-2-6.23-3.08a2,2,0,0,1-1.23-1.66,2,2,0,0,1,.78-1.8,2.8,2.8,0,0,1,.5-.31c2-1,4-2,6-3a2.64,2.64,0,0,1,2.9.17,1.9,1.9,0,0,1,.84,1.61v3.13Zm-.88,0c0-1,0-2,0-3a1.24,1.24,0,0,0-.73-1.17,1.86,1.86,0,0,0-1.76.05l-3.72,1.85L38.8,17.34a1.22,1.22,0,0,0-.75,1,1.25,1.25,0,0,0,.7,1.09l.09.05,6.09,3a2,2,0,0,0,1.16.18,1.36,1.36,0,0,0,1.23-1.39C47.33,20.38,47.32,19.42,47.32,18.47Z"/><path class="cls-1" d="M67.25,19.69a2.37,2.37,0,0,1-2.36-1.58,2.33,2.33,0,0,1-.08-.69c0-2,0-3.92,0-5.88a2.25,2.25,0,0,1,1.79-2.2,2.59,2.59,0,0,1,1.83.21c2,1,4.1,2,6.14,3a2.05,2.05,0,0,1,0,3.78l-4,2-2.08,1A2.44,2.44,0,0,1,67.25,19.69Zm-1.56-5.24c0,1,0,2,0,3a1.18,1.18,0,0,0,.7,1.12,1.79,1.79,0,0,0,1.75,0l6-3a1.83,1.83,0,0,0,.49-.33,1,1,0,0,0,.06-1.54,2.12,2.12,0,0,0-.62-.42l-5.79-2.88a3.11,3.11,0,0,0-.5-.21,1.53,1.53,0,0,0-2.08,1.52C65.74,12.65,65.68,13.55,65.69,14.45Z"/><path class="cls-1" d="M63.84,8.91c0,1,0,1.95,0,2.91A2.25,2.25,0,0,1,62,14.07a2.68,2.68,0,0,1-1.78-.23Q57.11,12.33,54,10.77A2,2,0,0,1,53,8.15,2.32,2.32,0,0,1,54.11,7l5.46-2.71c.24-.12.48-.25.73-.36a2.61,2.61,0,0,1,2.94.51,2,2,0,0,1,.6,1.45Zm-.86,0C63,8,63,7,63,6a1.29,1.29,0,0,0-.68-1.2,1.68,1.68,0,0,0-1.61-.08L54.45,7.81a1.67,1.67,0,0,0-.5.41,1,1,0,0,0-.15,1.16,1.53,1.53,0,0,0,.75.67l4,2c.71.35,1.41.73,2.14,1.05A1.55,1.55,0,0,0,63,11.63Z"/><path class="cls-1" d="M58.76,29.21c0-1,0-2,0-3A2.19,2.19,0,0,1,60.69,24a2.87,2.87,0,0,1,1.79.28q3,1.51,6,3a2.44,2.44,0,0,1,1,.82,2,2,0,0,1-.62,2.8l-.14.08c-2.14,1.07-4.27,2.15-6.43,3.19A2.51,2.51,0,0,1,59,33.12a1.71,1.71,0,0,1-.19-.89v-3Zm.86-.07c0,1,0,2,0,3a1.22,1.22,0,0,0,.82,1.21,1.75,1.75,0,0,0,1.56,0l6-3a1.72,1.72,0,0,0,.56-.41,1,1,0,0,0,0-1.46A1.88,1.88,0,0,0,68,28l-5.94-2.94a2.63,2.63,0,0,0-.35-.15,1.53,1.53,0,0,0-2.09,1.45C59.68,27.3,59.62,28.22,59.62,29.14Z"/><path class="cls-2" d="M69.57,22.78c0,.5,0,1,0,1.5a1.44,1.44,0,0,1-1.71,1.41,2,2,0,0,1-.56-.18c-1.07-.52-2.13-1.05-3.19-1.59a1.28,1.28,0,0,1,0-2.34c1.11-.55,2.21-1.12,3.33-1.65a1.59,1.59,0,0,1,1.8.3,1.32,1.32,0,0,1,.37.93C69.57,21.7,69.57,22.24,69.57,22.78Z"/><path class="cls-1" d="M70.79,25.54c0-.72,0-1.44,0-2.16a2.1,2.1,0,0,1,3.12-1.93L77,23c.65.32,1.3.63,1.93,1a1.81,1.81,0,0,1,1,1.2,1.73,1.73,0,0,1-1,2c-.75.39-1.51.75-2.27,1.13-1,.47-1.89.95-2.85,1.41a2.17,2.17,0,0,1-2.54-.39,1.85,1.85,0,0,1-.54-1.37V25.54Zm.92,0c0,.79,0,1.58,0,2.37a1,1,0,0,0,.89,1,1.72,1.72,0,0,0,1-.18c1.49-.75,3-1.48,4.5-2.23a3.25,3.25,0,0,0,.6-.35.81.81,0,0,0,0-1.3,2.36,2.36,0,0,0-.51-.3L73.7,22.34a2,2,0,0,0-.66-.23,1.09,1.09,0,0,0-1.32,1.1C71.71,24,71.71,24.79,71.71,25.58Z"/><path class="cls-2" d="M27.07,12.57c0,.37,0,.75,0,1.13a1.24,1.24,0,0,1-1.75,1.2,30.25,30.25,0,0,1-2.85-1.42,1.05,1.05,0,0,1,0-1.86c.91-.51,1.85-1,2.8-1.4a1.25,1.25,0,0,1,1.78,1.21C27.05,11.81,27.07,12.19,27.07,12.57Z"/><path class="cls-2" d="M36.57,17c0,.38,0,.76,0,1.14a1.26,1.26,0,0,1-1.77,1.19c-1-.43-1.92-.9-2.84-1.42A1.06,1.06,0,0,1,32,16c.53-.31,1.09-.56,1.64-.83l1-.5a1.28,1.28,0,0,1,1.89,1.18C36.56,16.25,36.57,16.63,36.57,17Z"/><path class="cls-1" d="M27.76,12.71a17.61,17.61,0,0,0,0-1.78,1.7,1.7,0,0,1,2.4-1.6c.33.13.65.29,1,.45l3.05,1.51a1.68,1.68,0,0,1,.93,1A1.43,1.43,0,0,1,34.31,14c-1,.53-2.06,1-3.09,1.54-.32.16-.64.33-1,.48a1.81,1.81,0,0,1-1.8-.14,1.35,1.35,0,0,1-.68-1.21C27.76,14,27.77,13.37,27.76,12.71Zm.87,0v1.67c0,.79.56,1.18,1.25.85,1.32-.63,2.62-1.29,3.93-1.93.25-.13.46-.29.45-.61s-.23-.47-.48-.6L33.64,12l-3.53-1.76a2.07,2.07,0,0,0-.34-.15.83.83,0,0,0-1.14.82C28.62,11.53,28.63,12.13,28.63,12.72Z"/><path class="cls-2" d="M52.41,9.74c0,.38,0,.76,0,1.14a1.22,1.22,0,0,1-1.72,1.17,24.31,24.31,0,0,1-2.89-1.44,1.06,1.06,0,0,1,.1-1.89c.6-.33,1.22-.61,1.83-.92l.82-.4a1.27,1.27,0,0,1,1.86,1.21A10.65,10.65,0,0,0,52.41,9.74Z"/><path class="cls-2" d="M64.68,6.25c0-.4,0-.8,0-1.19a1.24,1.24,0,0,1,1.63-1.19,2.68,2.68,0,0,1,.3.12l2.46,1.22a1.12,1.12,0,0,1,0,2.09L66.6,8.53a1.52,1.52,0,0,1-.84.14,1.15,1.15,0,0,1-1.08-1.13V6.25Z"/><path class="cls-2" d="M178.07,39.79a2.86,2.86,0,0,1-2.82-2.59,1.22,1.22,0,0,1,.77-1.39,4.06,4.06,0,0,1,4.45.94,1.44,1.44,0,0,1,.06,1.92A3,3,0,0,1,178.07,39.79Zm.16-3.52c-1.36-.33-2.16.13-2.07,1.16A3.47,3.47,0,0,1,178.23,36.27Z"/><path class="cls-1" d="M19.55,17.39c0-.61,0-1.22,0-1.83A1.6,1.6,0,0,1,21.41,14a2.27,2.27,0,0,1,.67.21c1.24.62,2.48,1.22,3.72,1.85a1.45,1.45,0,0,1,.91,1.35,1.35,1.35,0,0,1-.77,1.26c-1.35.69-2.7,1.36-4.07,2a1.7,1.7,0,0,1-2-.46,1.3,1.3,0,0,1-.35-.88C19.56,18.69,19.55,18,19.55,17.39Zm.87,0c0,.59,0,1.19,0,1.78a.72.72,0,0,0,.81.79,1.41,1.41,0,0,0,.61-.19C23,19.16,24.1,18.61,25.22,18a1.67,1.67,0,0,0,.46-.28.52.52,0,0,0,0-.77,1.29,1.29,0,0,0-.32-.19l-3.47-1.73a1.34,1.34,0,0,0-.67-.17.69.69,0,0,0-.76.78C20.41,16.24,20.42,16.79,20.42,17.35Z"/><path class="cls-1" d="M51.1,3.38c0-.56,0-1.12,0-1.67A1.65,1.65,0,0,1,53.53.17c.51.24,1,.5,1.5.74.79.4,1.59.78,2.37,1.19a1.4,1.4,0,0,1,.71,1.64,1.27,1.27,0,0,1-.66.82c-1.35.68-2.69,1.37-4.06,2a1.61,1.61,0,0,1-1.77-.28,1.3,1.3,0,0,1-.52-1.08Zm.87,0c0,.57,0,1.15,0,1.72a.66.66,0,0,0,.56.69.91.91,0,0,0,.72-.11l3.53-1.74a1.3,1.3,0,0,0,.31-.21.49.49,0,0,0,0-.79,1.68,1.68,0,0,0-.37-.21L53.36,1.06A2,2,0,0,0,53,.9a.75.75,0,0,0-1,.8Z"/><path class="cls-1" d="M25,23.94c0,.5,0,1,0,1.51a1.47,1.47,0,0,1-1.89,1.42,3,3,0,0,1-.45-.18l-3.1-1.53-.19-.1a1.28,1.28,0,0,1,0-2.23c1.12-.6,2.27-1.15,3.42-1.71a1.51,1.51,0,0,1,1.31,0A1.33,1.33,0,0,1,25,22.37C25,22.89,25,23.41,25,23.94Zm-.87,0c0-.49,0-1,0-1.46a.64.64,0,0,0-.83-.58L23,22l-3,1.52c-.19.09-.4.19-.39.46s.19.32.37.41c1.05.52,2.09,1.05,3.14,1.56a.63.63,0,0,0,1-.61C24.09,24.86,24.08,24.39,24.08,23.93Z"/><path class="cls-1" d="M48.51,26.78c0,.49,0,1,0,1.46a1.47,1.47,0,0,1-1.92,1.43,2.09,2.09,0,0,1-.35-.13L43,27.93a1.27,1.27,0,0,1-.75-1.16A1.25,1.25,0,0,1,43,25.6c1.09-.55,2.18-1.1,3.28-1.64a1.57,1.57,0,0,1,1.46,0,1.3,1.3,0,0,1,.77,1.2c0,.54,0,1.08,0,1.62Zm-.87,0a9.35,9.35,0,0,1,0-1.4.67.67,0,0,0-1-.64c-.47.26-1,.48-1.44.72s-1.17.57-1.74.88-.43.53,0,.79l.29.15,2.17,1.08c.26.13.51.26.78.37a.61.61,0,0,0,.94-.6C47.64,27.71,47.64,27.26,47.64,26.81Z"/><path class="cls-1" d="M79.41,19a14,14,0,0,0,0,1.45,1.46,1.46,0,0,1-2,1.39L77,21.7l-3-1.5a1.91,1.91,0,0,1-.27-.16,1.26,1.26,0,0,1,0-2.1,6.1,6.1,0,0,1,.71-.39l2.71-1.33a1.6,1.6,0,0,1,1.35-.09,1.3,1.3,0,0,1,.91,1.27V19Zm-.87,0V17.67c0-.69-.4-1-1-.66l-3.09,1.54c-.19.09-.35.2-.35.43s.16.35.34.44l1.65.82c.5.24,1,.51,1.5.74s1,0,1-.61C78.55,19.92,78.54,19.47,78.54,19Z"/><path class="cls-1" d="M69.23,36.33c0,.45,0,.91,0,1.35A1.53,1.53,0,0,1,67,39.11c-.54-.25-1.06-.53-1.59-.79s-1.21-.57-1.78-.91a1.25,1.25,0,0,1-.26-2,1.53,1.53,0,0,1,.4-.26l3.18-1.6a1.6,1.6,0,0,1,1.46,0,1.33,1.33,0,0,1,.83,1.28Zm-.87,0c0-.45,0-.9,0-1.35,0-.64-.43-.93-1-.66-1.07.51-2.13,1-3.19,1.59-.43.22-.42.57,0,.8,1.06.54,2.12,1.07,3.19,1.58.58.27,1,0,1-.66C68.37,37.2,68.36,36.76,68.36,36.33Z"/><path class="cls-1" d="M41.93,31.28c0,.52,0,1,0,1.56a1.42,1.42,0,0,1-1.69,1.37,3.44,3.44,0,0,1-.86-.32l-2.75-1.37c-.08,0-.16-.07-.24-.12a1.27,1.27,0,0,1,0-2.3q1.65-.87,3.33-1.65a1.54,1.54,0,0,1,1.6.12,1.22,1.22,0,0,1,.57,1Zm-.87,0a14,14,0,0,1,0-1.45.6.6,0,0,0-.73-.64,1.44,1.44,0,0,0-.41.15l-2.84,1.41a1.81,1.81,0,0,0-.33.2.38.38,0,0,0,0,.64,2.4,2.4,0,0,0,.27.16l2.85,1.41a1.22,1.22,0,0,0,.4.15c.5.09.75-.12.76-.63Z"/><path class="cls-1" d="M66.54,42.92c0,.5,0,1,0,1.51a1.42,1.42,0,0,1-1.88,1.39,25.69,25.69,0,0,1-3.87-1.9,1.21,1.21,0,0,1-.17-1.84,1.79,1.79,0,0,1,.52-.38l3-1.51a1.72,1.72,0,0,1,1.56-.07,1.3,1.3,0,0,1,.8,1.23C66.54,41.88,66.54,42.4,66.54,42.92Zm-.87,0c0-.49,0-1,0-1.46a.6.6,0,0,0-.76-.61,1.31,1.31,0,0,0-.4.15l-2.89,1.44a1.67,1.67,0,0,0-.23.12c-.3.22-.31.49,0,.7a2,2,0,0,0,.28.16l2.8,1.38a1.92,1.92,0,0,0,.29.14c.53.13,1-.09.94-.68S65.67,43.38,65.67,42.93Z"/><path class="cls-1" d="M48.51,4.93V6.44a1.44,1.44,0,0,1-1.9,1.39,3.41,3.41,0,0,1-.5-.19L43.3,6.26A3.47,3.47,0,0,1,42.84,6a1.26,1.26,0,0,1,0-2.16c.3-.19.64-.32,1-.49l2.37-1.17a1.61,1.61,0,0,1,1.55,0,1.26,1.26,0,0,1,.74,1.16c0,.54,0,1.08,0,1.62ZM47.64,5c0-.47,0-.94,0-1.41,0-.65-.4-.9-1-.63-.39.17-.78.37-1.17.56-.66.32-1.33.64-2,1-.49.26-.48.58,0,.86l.29.14L46.1,6.65c.21.1.42.22.64.3a.6.6,0,0,0,.89-.62C47.64,5.89,47.64,5.44,47.64,5Z"/><path class="cls-1" d="M35.19,7.47c0,.38,0,.75,0,1.13a1.27,1.27,0,0,1-1.87,1.16c-.88-.39-1.75-.82-2.6-1.28a1.09,1.09,0,0,1,0-2c.88-.49,1.79-.93,2.71-1.33a1.25,1.25,0,0,1,1.77,1.11c0,.41,0,.83,0,1.24Zm-.92,0h0v-1c0-.52-.2-.67-.67-.45-.81.38-1.62.78-2.41,1.19-.36.19-.36.37,0,.56.78.4,1.58.78,2.37,1.18a.68.68,0,0,0,.2.07c.31.06.48-.07.49-.39S34.27,7.85,34.27,7.47Z"/><path class="cls-1" d="M62.44,37.72c0,.41,0,.83,0,1.24a1.22,1.22,0,0,1-1.66,1.15,19.52,19.52,0,0,1-2.9-1.43,1.07,1.07,0,0,1,.09-2c.84-.44,1.7-.85,2.55-1.28a1.55,1.55,0,0,1,1.06-.08,1.18,1.18,0,0,1,.86,1.05c0,.43,0,.87,0,1.3Zm-.87,0c0-.32,0-.64,0-1,0-.55-.24-.72-.74-.48-.8.37-1.59.77-2.37,1.17-.33.17-.33.37,0,.54.82.42,1.64.83,2.47,1.22.4.2.64,0,.65-.45S61.57,38.09,61.57,37.74Z"/><path class="cls-1" d="M73.86,8.71c0,.32,0,.65,0,1a1.12,1.12,0,0,1-1.6,1c-.77-.34-1.53-.7-2.27-1.11a1,1,0,0,1,0-1.83c.69-.37,1.41-.69,2.11-1.06a1.17,1.17,0,0,1,1.75,1.1C73.85,8.1,73.87,8.41,73.86,8.71Zm-.91,0c0-.29,0-.58,0-.86s-.14-.41-.46-.29c-.16.06-.32.16-.48.24-.49.23-1,.46-1.46.71-.3.15-.3.26,0,.42l1.16.58a7.92,7.92,0,0,0,.78.37c.3.12.44,0,.45-.31S73,9,73,8.67Z"/><path class="cls-2" d="M70.05,32.85c0-.25,0-.5,0-.75a1,1,0,0,1,1.34-.93,15.08,15.08,0,0,1,1.93,1,.84.84,0,0,1,0,1.49,17.31,17.31,0,0,1-1.83.91,1,1,0,0,1-1.42-.93C70.06,33.35,70.05,33.1,70.05,32.85Z"/><path class="cls-2" d="M42.81,31.78c0-.25,0-.5,0-.75a1,1,0,0,1,1.31-.91,16.55,16.55,0,0,1,2,1,.83.83,0,0,1,0,1.46,14.38,14.38,0,0,1-1.93.95,1,1,0,0,1-1.34-.92C42.8,32.32,42.81,32.05,42.81,31.78Z"/><path class="cls-2" d="M61.72,45.6a1,1,0,0,1,.54.13l1.55.77a.9.9,0,0,1,0,1.7c-.51.26-1,.5-1.54.77a1,1,0,0,1-1.56-1c0-.48,0-1,0-1.46A.92.92,0,0,1,61.72,45.6Z"/><path class="cls-3" d="M102.75,27.47s0-.06,0-.06v0c0,.07,0,0,0,0Z"/><polygon class="cls-3" points="86.55 44.75 86.53 44.76 86.55 44.75 86.55 44.75"/><polygon class="cls-3" points="111.78 32.68 111.79 32.71 111.75 32.71 111.78 32.68"/></g></g></svg>