<svg xmlns="http://www.w3.org/2000/svg" width="24" height="24" viewBox="0 0 24 24">
  <defs>
    <style>
      .cls-1 {
        fill: #672828;
        opacity: 0;
      }

      .cls-2 {
        fill: #fff;
      }
    </style>
  </defs>
  <g id="Group_3" data-name="Group 3" transform="translate(-5811 -3557)">
    <rect id="Rectangle_4" data-name="Rectangle 4" class="cls-1" width="24" height="24" transform="translate(5811 3557)"/>
    <g id="_271-2713330_change-background-comments-background-icon-png" data-name="271-2713330_change-background-comments-background-icon-png" transform="translate(5810.5 4543.539)">
      <path id="Path_2756" data-name="Path 2756" class="cls-2" d="M5.8-986.533a5.932,5.932,0,0,0-2.972,1.16,7.768,7.768,0,0,0-1.155,1.162,6.021,6.021,0,0,0-1.128,2.726C.5-981.22.5-980.774.5-974.539s0,6.681.044,6.946a6.038,6.038,0,0,0,1.128,2.727,7.762,7.762,0,0,0,1.155,1.16A5.905,5.905,0,0,0,5.4-962.6l.312.056h6.7c6.391,0,6.712,0,6.968-.044a5.915,5.915,0,0,0,2.631-1.111,7.925,7.925,0,0,0,1.167-1.172,6.027,6.027,0,0,0,1.128-2.727c.041-.265.044-.711.044-6.946s0-6.681-.044-6.946a5.929,5.929,0,0,0-2.941-4.317,5.886,5.886,0,0,0-1.913-.682c-.268-.051-.273-.051-6.92-.054C8.877-986.541,5.846-986.538,5.8-986.533Zm13.257,1.554a4.192,4.192,0,0,1,2.561,1.3,4.293,4.293,0,0,1,1.177,2.4c.034.239.037.8.032,5.017l-.007,4.749-2.181-1.832c-1.384-1.162-2.229-1.854-2.31-1.9a.6.6,0,0,0-.3-.066c-.346,0-.207-.122-2.556,2.239-1.152,1.16-2.1,2.108-2.112,2.108s-1.364-1.357-3.009-3.016-3.038-3.043-3.092-3.082a.811.811,0,0,0-.682-.078c-.119.036-.236.149-2.339,2.261l-2.21,2.222,0-4.3.007-4.3.056-.256a5.6,5.6,0,0,1,.341-1.023,4.365,4.365,0,0,1,3.392-2.458c.088-.012,3.041-.022,6.566-.024C17.789-985.013,18.839-985.008,19.056-984.979Zm-9.185,12.7c3.355,3.379,3.128,3.172,3.472,3.172.368,0,.183.158,2.58-2.244l2.139-2.144.058.044c.032.024,1.1.921,2.383,1.993l2.324,1.949v.729a5.033,5.033,0,0,1-.122,1.433,4.408,4.408,0,0,1-2.354,2.87,4.377,4.377,0,0,1-1.384.39c-.175.019-2.071.024-6.688.019l-6.444-.007-.275-.056a4.35,4.35,0,0,1-3.5-3.662,11.846,11.846,0,0,1-.039-1.474l0-1.216,2.4-2.419c1.321-1.33,2.41-2.415,2.419-2.412S8.216-973.944,9.871-972.278Z" transform="translate(0 0)"/>
      <path id="Path_2757" data-name="Path 2757" class="cls-2" d="M500.019-832.79a3.14,3.14,0,0,0-2.5,2.446,4.474,4.474,0,0,0-.015,1.182,3.136,3.136,0,0,0,.87,1.632,2.926,2.926,0,0,0,1.218.758,3.055,3.055,0,0,0,3.267-.9,3.11,3.11,0,0,0-.146-4.271,3.076,3.076,0,0,0-1.645-.85A3.971,3.971,0,0,0,500.019-832.79Zm.887,1.533a1.62,1.62,0,0,1,.729.412,1.519,1.519,0,0,1,.4.629,1.1,1.1,0,0,1,.066.482,1.115,1.115,0,0,1-.073.512,1.56,1.56,0,0,1-1.764,1.038,1.533,1.533,0,0,1-1.1-.846,1.35,1.35,0,0,1-.163-.7,1.432,1.432,0,0,1,.463-1.1,1.444,1.444,0,0,1,.719-.424A1.945,1.945,0,0,1,500.906-831.258Z" transform="translate(-484.861 -149.969)"/>
    </g>
  </g>
</svg>
